<svg xmlns="http://www.w3.org/2000/svg" width="159.732" height="155.739" viewBox="0 0 159.732 155.739">
  <g id="vlpa" transform="translate(0)">
    <g id="vlpb" transform="translate(0)">
      <g id="vlpc">
        <g id="vlpd">
          <path id="Trazado_178" data-name="Trazado 178" d="M28.286,0h103.16a28.262,28.262,0,0,1,28.286,28.286v99.167a28.262,28.262,0,0,1-28.286,28.286H28.286A28.262,28.262,0,0,1,0,127.453V28.286A28.262,28.262,0,0,1,28.286,0Z" fill="#fff"/>
        </g>
      </g>
    </g>
    <g id="vlpe" transform="translate(32.805 34.542)">
      <g id="vlpf">
        <path style="fill-opacity: 0.35;" id="Trazado_179" data-name="Trazado 179" d="M93.689,113.077H68.931l-5.058,15.64a1.165,1.165,0,0,1-1.265.932H50.1c-.732,0-.932-.4-.732-1.2l21.431-61.7c.2-.666.4-1.4.666-2.2a23.247,23.247,0,0,0,.4-4.326.659.659,0,0,1,.532-.732H89.629c.532,0,.8.2.865.532l24.293,68.552c.2.732,0,1.065-.666,1.065h-13.91a1,1,0,0,1-1.065-.732l-5.458-15.84Zm-20.9-13.511H89.7c-.4-1.4-.932-3.062-1.531-4.792-.6-1.8-1.2-3.727-1.8-5.724-.666-2.063-1.265-4.06-1.93-6.123s-1.265-3.993-1.8-5.923c-.532-1.864-1-3.594-1.464-5.191h-.133A81.717,81.717,0,0,1,78.781,80.4c-1,3.195-2,6.522-3.062,9.85-.932,3.394-1.93,6.522-2.928,9.318Z" transform="translate(-49.29 -54.442)" />
        <path style="fill-opacity: 0.35;" id="Trazado_180" data-name="Trazado 180" d="M165.884,68.605a8.237,8.237,0,0,1-5.923-2.329,8.646,8.646,0,0,1-2.263-6.123,7.83,7.83,0,0,1,2.4-5.923,8.524,8.524,0,0,1,5.923-2.329,7.969,7.969,0,0,1,6.057,2.329,9.15,9.15,0,0,1-.133,12.046A7.826,7.826,0,0,1,165.884,68.605Zm-7.454,57.77V75.128c0-.666.266-.932.865-.932h13.178c.6,0,.865.333.865.932v51.247c0,.732-.266,1.065-.865,1.065H159.428A.931.931,0,0,1,158.43,126.375Z" transform="translate(-85.546 -51.9)" />
      </g>
    </g>
  </g>
</svg>
