<svg id="adobe-xd" xmlns="http://www.w3.org/2000/svg" width="159.732" height="155.739" viewBox="0 0 159.732 155.739">
  <path id="Trazado_176" data-name="Trazado 176" d="M28.286,0h103.16a28.262,28.262,0,0,1,28.286,28.286v99.167a28.262,28.262,0,0,1-28.286,28.286H28.286A28.262,28.262,0,0,1,0,127.453V28.286A28.262,28.262,0,0,1,28.286,0Z" fill="#fff"/>
  <g style="fill-opacity: 0.35;" id="Grupo_3" data-name="Grupo 3" transform="translate(23.268 34.132)">
    <path id="Trazado_177" data-name="Trazado 177" d="M95.685,58.083,75.719,91.028l21.3,34.941a1.146,1.146,0,0,1,.133.8c-.067.266-.333.067-.732.133H81.176c-1.065,0-1.8-.067-2.263-.732-1.4-2.8-2.862-5.524-4.26-8.319-1.4-2.729-2.928-5.524-4.526-8.386s-3.195-5.724-4.792-8.652H65.2c-1.4,2.862-2.928,5.724-4.459,8.586s-3.062,5.724-4.526,8.519c-1.531,2.8-3.062,5.657-4.592,8.386-.266.666-.8.732-1.531.732H35.453c-.266,0-.466.133-.466-.2a.924.924,0,0,1,.133-.732l20.7-33.943L35.652,58.017c-.2-.266-.266-.532-.133-.666a.772.772,0,0,1,.666-.266H51.293a3.928,3.928,0,0,1,.932.133,1.888,1.888,0,0,1,.666.6c1.265,2.862,2.729,5.724,4.26,8.586,1.6,2.862,3.128,5.657,4.792,8.452,1.6,2.8,3.062,5.591,4.459,8.452h.133c1.4-2.928,2.862-5.79,4.326-8.586s2.995-5.591,4.526-8.386,2.995-5.657,4.459-8.386a1.132,1.132,0,0,1,.4-.666,1.269,1.269,0,0,1,.865-.133H95.153a.613.613,0,0,1,.732.466c.067.067-.067.333-.2.466ZM126.433,128.3a33.088,33.088,0,0,1-14.309-2.995,23.2,23.2,0,0,1-10.05-9.051c-2.463-4.06-3.661-9.118-3.661-15.175a27.335,27.335,0,0,1,3.661-14.043,27.638,27.638,0,0,1,10.582-10.316c4.659-2.6,10.249-3.86,16.838-3.86a11.884,11.884,0,0,1,1.4.067c.6.067,1.265.067,2.063.133V52.027c0-.466.2-.732.666-.732h13.511a.6.6,0,0,1,.666.466v63.493c0,1.2.067,2.529.133,3.993.133,1.4.2,2.729.266,3.86a1.081,1.081,0,0,1-.666,1.065,50.83,50.83,0,0,1-10.848,3.195,58.708,58.708,0,0,1-10.249.932Zm6.522-13.311V85.7a17.024,17.024,0,0,0-1.8-.333c-.732-.067-1.464-.133-2.2-.133a16.407,16.407,0,0,0-7.521,1.73,14.92,14.92,0,0,0-5.657,4.925,14.753,14.753,0,0,0-2.2,8.452,18.547,18.547,0,0,0,1.131,6.855,13.008,13.008,0,0,0,2.995,4.725,11.5,11.5,0,0,0,4.526,2.662,17.422,17.422,0,0,0,5.524.865c1,0,1.93-.067,2.8-.133a5.821,5.821,0,0,0,2.4-.333Z" transform="translate(-34.961 -51.284)" />
  </g>
</svg>
