<svg id="adobe-photoshop" xmlns="http://www.w3.org/2000/svg" width="159.732" height="155.739" viewBox="0 0 159.732 155.739">
  <path  id="Trazado_174" data-name="Trazado 174" d="M28.286,0h103.16a28.262,28.262,0,0,1,28.286,28.286v99.167a28.262,28.262,0,0,1-28.286,28.286H28.286A28.262,28.262,0,0,1,0,127.453V28.286A28.262,28.262,0,0,1,28.286,0Z" fill="#fff" />
  <g style="fill-opacity: 0.35;" id="Grupo_2" data-name="Grupo 2" transform="translate(35.94 39.6)">
    <path id="Trazado_175" data-name="Trazado 175" d="M54,129.117V60.631c0-.466.2-.732.666-.732,1.131,0,2.2,0,3.727-.067,1.6-.067,3.261-.067,5.058-.133s3.727-.067,5.79-.133S73.3,59.5,75.3,59.5a39.134,39.134,0,0,1,13.71,2.063,23.767,23.767,0,0,1,8.918,5.458,21.191,21.191,0,0,1,4.859,7.587,25.474,25.474,0,0,1,1.531,8.652q0,8.586-3.993,14.176a22.8,22.8,0,0,1-10.715,8.12,43.134,43.134,0,0,1-14.975,2.263c-1.6,0-2.662,0-3.328-.067s-1.6-.067-2.862-.067V129.05a.828.828,0,0,1-.732.932H54.8C54.266,129.982,54,129.716,54,129.117ZM68.509,72.744V95.107c.932.067,1.8.133,2.6.133h3.527a24.861,24.861,0,0,0,7.654-1.2,11.446,11.446,0,0,0,5.458-3.527,10.284,10.284,0,0,0,2.063-6.855,10.954,10.954,0,0,0-1.531-5.923,9.651,9.651,0,0,0-4.659-3.794,19.53,19.53,0,0,0-7.853-1.331c-1.73,0-3.261,0-4.526.067a15.239,15.239,0,0,0-2.729.067Zm77.337,18.3a23.557,23.557,0,0,0-6.389-2.263A35.084,35.084,0,0,0,132,87.919a13.4,13.4,0,0,0-3.993.466,3.417,3.417,0,0,0-2.063,1.331,3.527,3.527,0,0,0-.532,1.8,2.96,2.96,0,0,0,.666,1.73,7.511,7.511,0,0,0,2.263,1.8c1.531.8,3.128,1.531,4.725,2.2a48.206,48.206,0,0,1,10.249,4.859,15.486,15.486,0,0,1,5.258,5.524,14.367,14.367,0,0,1,1.531,6.855,15.485,15.485,0,0,1-2.6,8.852,16.678,16.678,0,0,1-7.454,5.923,30.5,30.5,0,0,1-12.046,2.13,45.846,45.846,0,0,1-9.051-.865,26.847,26.847,0,0,1-6.789-2.13,1.309,1.309,0,0,1-.732-1.265V115.539a.723.723,0,0,1,.266-.6.507.507,0,0,1,.6.067,28.49,28.49,0,0,0,8.253,3.261,30.984,30.984,0,0,0,7.854,1,12.7,12.7,0,0,0,5.524-.932,3.092,3.092,0,0,0,1.8-2.8,3.526,3.526,0,0,0-1.6-2.662,28.225,28.225,0,0,0-6.522-3.128,40.722,40.722,0,0,1-9.451-4.792A17.233,17.233,0,0,1,113.1,99.3a14.281,14.281,0,0,1-1.531-6.789,15.654,15.654,0,0,1,2.263-8.053,16.406,16.406,0,0,1,6.988-6.123c3.128-1.6,7.055-2.329,11.78-2.329a57.378,57.378,0,0,1,8.253.6,23.418,23.418,0,0,1,5.724,1.531,1.169,1.169,0,0,1,.666.6,3.341,3.341,0,0,1,.133.8V90.382a.819.819,0,0,1-.333.666,1.773,1.773,0,0,1-1.2,0Z" transform="translate(-54 -59.5)"  />
  </g>
</svg>