<svg xmlns="http://www.w3.org/2000/svg" width="155.919" height="155.813" viewBox="0 0 155.919 155.813">
  <g id="adonis" transform="translate(-0.117 279.696)">
    <path id="Trazado_172" data-name="Trazado 172" d="M63.874-279.531c-19.23,1.449-29.932,3.79-38.739,8.361-11.65,6.076-18.617,16.443-22.017,32.831-4.348,20.9-3.9,58.081.892,76.865,2.453,9.643,7.246,18.394,12.876,23.466,11.761,10.535,31.883,14.771,67.055,14.046,26.03-.557,40.244-3.456,50.667-10.479,11.482-7.636,17.279-19.119,20.178-40.021,1.171-8.361,1.672-35.06.836-45.484-3.233-40.244-15.551-54.179-51.671-58.527C97.15-279.308,70.284-280.033,63.874-279.531ZM86-254.56a17.689,17.689,0,0,1,7.8,4.348c3.233,2.676,5.741,6.744,9.253,14.994,2.731,6.3,12.263,28.037,18.506,42.028,5.128,11.594,5.908,14.883,5.017,20.735-1.226,8.082-6.354,14.938-13.322,17.837-3.233,1.338-4.4,1.5-9.81,1.5-5.518.056-6.8-.167-13.1-2.062-8.64-2.676-14.381-2.9-21.46-.948-10.7,3.01-12.374,3.344-15.83,3.344-7.3-.056-12.151-2.007-17.112-6.967-4.292-4.236-5.853-7.971-6.243-14.827-.334-6.522-.78-5.3,12.987-36.454,1.616-3.679,4.236-9.7,5.853-13.378s4.292-9.81,6.02-13.6c5.072-11.2,10.646-16.109,19.9-17.558A37.538,37.538,0,0,1,86-254.56Z" fill="#fff"/>
    <path id="Trazado_173" data-name="Trazado 173" d="M114.813-176.675c-3.512,7.915-7.971,18-9.922,22.463-2.007,4.459-4.348,9.81-5.3,11.873a22.16,22.16,0,0,0-1.5,4.013,32.174,32.174,0,0,0,4.961-1.393c6.243-2.118,10.646-2.787,18.394-2.787s12.151.669,18.394,2.787a32.481,32.481,0,0,0,4.905,1.393,12.233,12.233,0,0,0-1.226-3.121c-.78-1.672-2.174-4.794-3.066-6.912-.892-2.174-3.344-7.915-5.518-12.82-2.118-4.905-4.961-11.315-6.187-14.214-1.282-2.9-2.787-6.3-3.344-7.525s-1.616-3.567-2.285-5.184c-.669-1.561-1.393-2.9-1.616-2.9C121.334-191,118.324-184.534,114.813-176.675Z" transform="translate(-43.359 -39.257)" fill="#fff"/>
  </g>
</svg>
