<svg xmlns="http://www.w3.org/2000/svg" width="161.394" height="161.387" viewBox="0 0 161.394 161.387">
  <g id="arduino" transform="translate(-0.5 -0.483)">
    <path id="Trazado_193" data-name="Trazado 193" d="M161.893,81.173A80.7,80.7,0,1,1,81.2.483a80.7,80.7,0,0,1,80.691,80.69Z" transform="translate(0 0)" fill="#232424"/>
    <g id="Grupo_4" data-name="Grupo 4" transform="translate(20.467 52.311)">
      <path id="Trazado_195" data-name="Trazado 195" d="M261.693,498.53a31.446,31.446,0,0,1-4.605-.337c-12.827-1.831-21.4-11.043-26.208-18.125-4.819,7.082-13.4,16.3-26.217,18.131a32.469,32.469,0,0,1-4.606.328,30.312,30.312,0,0,1-21.092-8.357,28.232,28.232,0,0,1,.008-41.01,30.3,30.3,0,0,1,21.1-8.349,32.544,32.544,0,0,1,4.593.328c12.822,1.829,21.4,11.042,26.217,18.125,4.805-7.083,13.381-16.294,26.207-18.125a32.529,32.529,0,0,1,4.6-.328,30.325,30.325,0,0,1,21.092,8.349,28.254,28.254,0,0,1,.008,41.01,30.32,30.32,0,0,1-21.091,8.36m-25.134-28.857c2.505,4.771,9.895,16.676,21.974,18.406a23.286,23.286,0,0,0,3.159.226c10.85,0,19.683-8.357,19.683-18.635s-8.83-18.635-19.691-18.635a22.043,22.043,0,0,0-3.149.226c-12.081,1.726-19.471,13.631-21.976,18.411m-36.491-18.635c-10.865,0-19.7,8.357-19.7,18.635s8.83,18.635,19.685,18.635a23.346,23.346,0,0,0,3.164-.226c12.08-1.73,19.467-13.628,21.974-18.406-2.5-4.771-9.894-16.686-21.974-18.406a21.221,21.221,0,0,0-3.15-.232" transform="translate(-170.142 -440.81)" fill="#fff"/>
      <path id="Trazado_196" data-name="Trazado 196" d="M354.37,616.395h17.964v5.789H354.37Zm77.932,0H426.22V610.3h-5.808v6.091h-6.079v5.789h6.079v6.09h5.808v-6.09H432.3Z" transform="translate(-332.686 -590.354)" fill="#fff"/>
    </g>
  </g>
</svg>
