<svg xmlns="http://www.w3.org/2000/svg" width="184.164" height="146.707" viewBox="0 0 184.164 146.707">
  <path id="bootstrap" d="M38.251,0C27.743,0,19.968,9.2,20.316,19.172c.334,9.583-.1,21.994-3.224,32.115C13.956,61.436,8.657,67.868,0,68.693v9.32c8.657.827,13.956,7.256,17.091,17.407,3.125,10.121,3.558,22.532,3.224,32.115-.348,9.973,7.427,19.172,17.937,19.172H145.926c10.508,0,18.282-9.2,17.934-19.172-.334-9.583.1-21.994,3.224-32.115,3.135-10.151,8.421-16.582,17.079-17.407v-9.32c-8.657-.827-13.943-7.256-17.079-17.407-3.125-10.12-3.559-22.532-3.224-32.115C164.209,9.2,156.434,0,145.926,0H38.25Zm86.605,90.307c0,13.734-10.244,22.064-27.245,22.064H68.671a3.121,3.121,0,0,1-3.121-3.121V37.457a3.121,3.121,0,0,1,3.121-3.121H97.447c14.176,0,23.479,7.679,23.479,19.468a17.433,17.433,0,0,1-14.232,16.98v.432c10.854,1.191,18.163,8.708,18.163,19.092Zm-30.4-46.077h-16.5V67.539h13.9c10.744,0,16.668-4.326,16.668-12.059C108.52,48.232,103.427,44.231,94.456,44.231Zm-16.5,32.556v25.686H95.063c11.187,0,17.112-4.489,17.112-12.924s-6.091-12.763-17.831-12.763H77.954Z" fill="#fff" fill-rule="evenodd"/>
</svg>
