<svg xmlns="http://www.w3.org/2000/svg" width="146.243" height="164.365" viewBox="0 0 146.243 164.365">
  <g id="c" transform="translate(0 -0.268)">
    <path id="Trazado_200" data-name="Trazado 200" d="M146.235,48.591a14.514,14.514,0,0,0-1.788-7.3,13.962,13.962,0,0,0-5.291-5.154Q109.953,19.3,80.737,2.48C75.49-.549,70.4-.439,65.195,2.634,57.445,7.2,18.648,29.432,7.087,36.128A13.5,13.5,0,0,0,.007,48.586Q0,82.45,0,116.314a14.577,14.577,0,0,0,1.71,7.162,13.914,13.914,0,0,0,5.371,5.3c11.562,6.7,50.365,28.923,58.112,33.494,5.21,3.074,10.3,3.184,15.547.154q29.195-16.857,58.424-33.655a13.919,13.919,0,0,0,5.371-5.294,14.6,14.6,0,0,0,1.709-7.163s0-45.14-.007-67.716" transform="translate(0 0)" fill="#232424"/>
    <path id="Trazado_201" data-name="Trazado 201" d="M74.623,143.509,2.988,184.755a13.914,13.914,0,0,0,5.371,5.3c11.562,6.7,50.365,28.923,58.112,33.494,5.21,3.074,10.3,3.184,15.547.154q29.195-16.857,58.424-33.655a13.92,13.92,0,0,0,5.371-5.294l-71.188-41.24" transform="translate(-1.278 -61.279)" fill="#343434"/>
    <path id="Trazado_202" data-name="Trazado 202" d="M91.1,155.727a24.177,24.177,0,0,0,42.067-.14l-20.849-12.077L91.1,155.727" transform="translate(-38.973 -61.279)" fill="#343434"/>
    <path id="Trazado_203" data-name="Trazado 203" d="M201.072,79.261a14.514,14.514,0,0,0-1.788-7.3l-71.1,40.941,71.188,41.24a14.6,14.6,0,0,0,1.709-7.163s0-45.14-.007-67.716" transform="translate(-54.837 -30.67)" fill="#434343"/>
    <path id="Trazado_204" data-name="Trazado 204" d="M221.075,140.343h-5.563v5.564h-5.564v-5.564h-5.562v-5.562h5.562v-5.563h5.564v5.563h5.563v5.562m-20.3,0h-5.562v5.564h-5.563v-5.564h-5.563v-5.562h5.563v-5.563h5.563v5.563h5.562v5.562" transform="translate(-78.754 -55.166)" fill="#fff"/>
    <path id="Trazado_205" data-name="Trazado 205" d="M112.554,119.441a24.183,24.183,0,1,1-.157-23.99l21.137-12.172a48.565,48.565,0,1,0,.126,48.39l-21.106-12.228" transform="translate(-18.36 -25.134)" fill="#fff"/>
  </g>
</svg>
