<svg xmlns="http://www.w3.org/2000/svg" width="160.905" height="161.977" viewBox="0 0 160.905 161.977">
  <g id="dart" transform="translate(-0.846 -0.001)">
    <path id="Trazado_153" data-name="Trazado 153" d="M64.457,63.619,53.988,53.15l.044,75.674.125,3.537a24.957,24.957,0,0,0,.876,5.488L137.986,167.1l20.736-9.187.008-.025L64.457,63.619" transform="translate(-19.518 -19.52)" fill="#f6f6f6"/>
    <path id="Trazado_154" data-name="Trazado 154" d="M55.63,186.955l.005.005a.773.773,0,0,1-.023-.108A.287.287,0,0,0,55.63,186.955Zm103.689,20.064-20.736,9.187L55.635,186.96c1.584,6.079,5.092,12.913,8.867,16.65l27.071,26.916,60.191.078,7.562-23.611-.008.025Z" transform="translate(-20.114 -68.626)" fill="#e9e9e9"/>
    <path id="Trazado_155" data-name="Trazado 155" d="M2.231,101.848C-.45,104.71.882,110.612,5.2,114.96L23.81,133.728l11.705,4.122a24.957,24.957,0,0,1-.876-5.488l-.125-3.537L34.47,53.15l-32.24,48.7Z" transform="translate(0 -19.52)" fill="#e2e2e2"/>
    <path id="Trazado_156" data-name="Trazado 156" d="M138.667,54.113a25.911,25.911,0,0,0-5.5-.858l-3.738-.129-75.436.01L158.739,157.879h.009l9.2-20.756-29.281-83.01" transform="translate(-19.518 -19.511)" fill="#e5e5e5"/>
    <path id="Trazado_157" data-name="Trazado 157" d="M187.67,54.654c.04.009.072.02.1.024l0,0a.5.5,0,0,0-.095-.02ZM204.4,63.562c-3.8-3.833-10.545-7.317-16.636-8.883l29.277,83.006-9.2,20.756h-.009l22.482-7.18.048-61.638L204.4,63.562Z" transform="translate(-68.616 -20.073)" fill="#f8f8f8"/>
    <path id="Trazado_158" data-name="Trazado 158" d="M134.566,22.967,115.8,4.342c-4.339-4.3-10.244-5.636-13.1-2.964L53.988,33.625l75.436-.01,3.738.129a25.912,25.912,0,0,1,5.5.858l-4.1-11.635Z" transform="translate(-19.518 0)" fill="#f6f6f6"/>
  </g>
</svg>
