<svg xmlns="http://www.w3.org/2000/svg" width="157.712" height="157.793" viewBox="0 0 157.712 157.793">
  <g id="digitalocean-icon-1" transform="translate(0 -0.148)">
    <path id="Trazado_229" data-name="Trazado 229" d="M78.863,157.942v-30.58c32.368,0,57.494-32.1,45.064-66.167A45.7,45.7,0,0,0,96.658,33.923C62.59,21.585,30.491,46.619,30.491,78.987H0C0,27.4,49.894-12.837,103.989,4.059a76.365,76.365,0,0,1,49.806,49.809c16.9,54.18-23.249,104.074-74.931,104.074" transform="translate(0 0)" fill="#fff" fill-rule="evenodd"/>
    <path id="Trazado_230" data-name="Trazado 230" d="M44.761,61.162h30.4v-30.4h-30.4ZM21.335,84.588H44.758V61.165H21.335ZM1.751,61.165H21.335V41.579H1.751Z" transform="translate(3.791 66.289)" fill="#fff" fill-rule="evenodd"/>
  </g>
</svg>
