<svg id="figma" xmlns="http://www.w3.org/2000/svg" width="103.826" height="155.739" viewBox="0 0 103.826 155.739">
  <path id="Trazado_181" data-name="Trazado 181" d="M25.956,251.913a25.966,25.966,0,0,0,25.956-25.956V200H25.956a25.956,25.956,0,0,0,0,51.913Z" transform="translate(0 -96.174)" fill="#fff"/>
  <path id="Trazado_182" data-name="Trazado 182" d="M0,125.956A25.966,25.966,0,0,1,25.956,100H51.913v51.913H25.956A25.966,25.966,0,0,1,0,125.956Z" transform="translate(0 -48.087)" fill="#fff"/>
  <path id="Trazado_183" data-name="Trazado 183" d="M0,25.956A25.966,25.966,0,0,1,25.956,0H51.913V51.913H25.956A25.966,25.966,0,0,1,0,25.956Z" fill="#fff"/>
  <path id="Trazado_184" data-name="Trazado 184" d="M100,0h25.956a25.956,25.956,0,0,1,0,51.913H100Z" transform="translate(-48.087)" fill="#fff"/>
  <path id="Trazado_185" data-name="Trazado 185" d="M151.913,125.956A25.956,25.956,0,1,1,125.956,100,25.966,25.966,0,0,1,151.913,125.956Z" transform="translate(-48.087 -48.087)" fill="#fff"/>
</svg>
