<svg id="figma-1_1_" data-name="figma-1 (1)" xmlns="http://www.w3.org/2000/svg" width="119.009" height="178.513" viewBox="0 0 119.009 178.513">
  <path id="Trazado_238" data-name="Trazado 238" d="M29.752,259.5A29.763,29.763,0,0,0,59.5,229.752V200H29.752a29.752,29.752,0,0,0,0,59.5Z" transform="translate(0 -80.991)" fill="#f6f6f6"/>
  <path id="Trazado_239" data-name="Trazado 239" d="M0,129.752A29.763,29.763,0,0,1,29.752,100H59.5v59.5H29.752A29.763,29.763,0,0,1,0,129.752Z" transform="translate(0 -40.496)" fill="#e6e6e6"/>
  <path id="Trazado_240" data-name="Trazado 240" d="M0,29.752A29.763,29.763,0,0,1,29.752,0H59.5V59.5H29.752A29.763,29.763,0,0,1,0,29.752Z" fill="#bcbcbc"/>
  <path id="Trazado_241" data-name="Trazado 241" d="M100,0h29.752a29.752,29.752,0,0,1,0,59.5H100Z" transform="translate(-40.496)" fill="#e1dfdf"/>
  <path id="Trazado_242" data-name="Trazado 242" d="M159.5,129.752A29.752,29.752,0,1,1,129.752,100,29.763,29.763,0,0,1,159.5,129.752Z" transform="translate(-40.496 -40.496)" fill="#fff"/>
</svg>
