<svg xmlns="http://www.w3.org/2000/svg" width="156.451" height="216.682" viewBox="0 0 156.451 216.682">
  <g id="firebase-2" transform="translate(0 -0.05)">
    <path id="Trazado_234" data-name="Trazado 234" d="M735.488,400.157l-21.671,20.178L693.7,379.742l10.392-23.34c2.627-4.656,6.922-4.717,9.549,0Z" transform="translate(-632.762 -321.842)" fill="#e5e5e5"/>
    <path id="Trazado_235" data-name="Trazado 235" d="M81.063,699.184,0,774.581,60.947,658.6Z" transform="translate(0 -600.7)" fill="#cfcfcf"/>
    <path id="Trazado_236" data-name="Trazado 236" d="M126.488,517.624c3.883-3.7,7.88-2.451,8.89,2.8l21.074,122.6-69.9,41.963C84.1,686.365,77.6,686.9,77.6,686.9s-5.912-.72-8.178-1.968L0,644.05Z" transform="translate(0 -470.168)" fill="#fff"/>
    <path id="Trazado_237" data-name="Trazado 237" d="M60.947,57.9,0,173.882,27.162,4.359c1.019-5.253,4-5.789,6.685-1.133Z" transform="translate(0 0)" fill="#e5e5e5"/>
  </g>
</svg>
