<svg xmlns="http://www.w3.org/2000/svg" width="144.05" height="144.047" viewBox="0 0 144.05 144.047">
  <path id="git" d="M141.333,65.607,78.44,2.717a9.277,9.277,0,0,0-13.119,0l-13.06,13.06L68.828,32.344A11.017,11.017,0,0,1,82.78,46.389L98.746,62.356a11.025,11.025,0,1,1-6.612,6.224L77.245,53.69l0,39.184a11.153,11.153,0,0,1,2.919,2.088,11.029,11.029,0,1,1-12-2.408V53a10.9,10.9,0,0,1-3.613-2.409,11.035,11.035,0,0,1-2.379-12.068L45.843,22.194,2.718,65.316a9.28,9.28,0,0,0,0,13.123l62.895,62.891a9.278,9.278,0,0,0,13.12,0l62.6-62.6a9.283,9.283,0,0,0,0-13.124" transform="translate(0 0)" fill="#232424"/>
</svg>
