<svg id="github" xmlns="http://www.w3.org/2000/svg" width="136.699" height="133.325" viewBox="0 0 136.699 133.325">
  <path id="Trazado_191" data-name="Trazado 191" d="M68.35,0A68.357,68.357,0,0,0,46.742,133.207c3.416.633,4.67-1.483,4.67-3.288,0-1.63-.064-7.014-.093-12.725-19.016,4.135-23.028-8.064-23.028-8.064-3.109-7.9-7.589-10-7.589-10-6.2-4.242.467-4.156.467-4.156,6.864.482,10.478,7.044,10.478,7.044,6.1,10.449,15.989,7.428,19.89,5.682.613-4.418,2.385-7.433,4.339-9.14C40.7,96.831,24.736,90.97,24.736,64.78a26.451,26.451,0,0,1,7.043-18.346c-.71-1.722-3.049-8.673.662-18.088,0,0,5.74-1.837,18.8,7.006a64.839,64.839,0,0,1,34.23,0c13.046-8.843,18.778-7.006,18.778-7.006,3.72,9.415,1.38,16.366.67,18.088a26.4,26.4,0,0,1,7.034,18.346c0,26.252-15.989,32.033-31.209,33.724,2.451,2.121,4.636,6.281,4.636,12.657,0,9.145-.079,16.506-.079,18.757,0,1.819,1.23,3.95,4.7,3.279A68.36,68.36,0,0,0,68.35,0" fill="#232424"/>
  <path id="Trazado_192" data-name="Trazado 192" d="M46.171,180.631c-.15.339-.685.441-1.171.209s-.775-.686-.614-1.027.682-.447,1.177-.212.78.69.608,1.031m3.362,3c-.326.3-.963.162-1.4-.316a1.045,1.045,0,0,1-.2-1.421c.336-.3.954-.161,1.4.316s.534,1.115.193,1.421m2.307,3.838c-.419.291-1.1.018-1.527-.59s-.419-1.336.009-1.629,1.1-.029,1.528.574c.418.618.418,1.347-.01,1.645m3.9,4.445c-.375.413-1.172.3-1.757-.262a1.314,1.314,0,0,1-.388-1.746c.379-.414,1.181-.3,1.77.262s.775,1.338.375,1.746m5.041,1.5c-.165.535-.933.778-1.707.551s-1.279-.861-1.123-1.4.933-.792,1.713-.549,1.279.856,1.118,1.4m5.737.636c.019.564-.637,1.031-1.45,1.042s-1.478-.438-1.487-.993c0-.569.642-1.032,1.459-1.046s1.478.437,1.478,1m5.636-.216c.1.55-.467,1.115-1.274,1.265s-1.528-.195-1.629-.74c-.1-.564.477-1.128,1.269-1.275.808-.14,1.532.19,1.634.749" transform="translate(-20.571 -83.265)" fill="#232424"/>
</svg>
