<svg id="javascript" xmlns="http://www.w3.org/2000/svg" width="145" height="145" viewBox="0 0 145 145">
  <rect id="Rectángulo_10" data-name="Rectángulo 10" width="145" height="145" fill="#fff"/>
  <path style="fill-opacity: 0.35;" d="M225.41,333.617c2.936,4.793,6.755,8.317,13.511,8.317,5.675,0,9.3-2.836,9.3-6.755,0-4.7-3.725-6.36-9.971-9.092l-3.424-1.469c-9.883-4.211-16.449-9.485-16.449-20.636,0-10.272,7.826-18.091,20.058-18.091,8.708,0,14.968,3.031,19.479,10.966L247.25,303.7c-2.348-4.211-4.881-5.869-8.814-5.869-4.012,0-6.554,2.545-6.554,5.869,0,4.109,2.545,5.772,8.421,8.317l3.424,1.467c11.637,4.99,18.207,10.077,18.207,21.515,0,12.331-9.686,19.086-22.7,19.086-12.719,0-20.937-6.061-24.958-14.006ZM177.029,334.8c2.152,3.817,4.109,7.045,8.814,7.045,4.5,0,7.338-1.761,7.338-8.606v-46.57h13.7v46.755c0,14.182-8.315,20.636-20.451,20.636-10.966,0-17.316-5.675-20.546-12.51Z" transform="translate(-127.504 -219.75)"/>
</svg>
