<svg xmlns="http://www.w3.org/2000/svg" width="182.08" height="187.442" viewBox="0 0 182.08 187.442">
  <path id="laravel" d="M181.977,42.4a2.966,2.966,0,0,1,.1.766V83.4a2.934,2.934,0,0,1-1.474,2.545l-33.769,19.442v38.536a2.941,2.941,0,0,1-1.467,2.545l-70.49,40.579a3.153,3.153,0,0,1-.513.213c-.066.022-.128.062-.2.081a2.952,2.952,0,0,1-1.5,0c-.081-.022-.154-.066-.231-.1a3.05,3.05,0,0,1-.484-.2L1.474,146.473A2.937,2.937,0,0,1,0,143.928V23.226a3,3,0,0,1,.1-.77c.022-.084.073-.161.1-.246a2.891,2.891,0,0,1,.187-.455,2.744,2.744,0,0,1,.2-.26,2.988,2.988,0,0,1,.26-.341,2.865,2.865,0,0,1,.29-.22,2.391,2.391,0,0,1,.323-.253h0L36.71.392a2.941,2.941,0,0,1,2.934,0l35.24,20.289h.007a3.594,3.594,0,0,1,.323.249,3.47,3.47,0,0,1,.286.22,3.432,3.432,0,0,1,.264.345,2.705,2.705,0,0,1,.2.26,3.062,3.062,0,0,1,.191.455c.029.084.081.161.1.249a2.967,2.967,0,0,1,.1.766V98.615l29.365-16.908V43.167a2.965,2.965,0,0,1,.1-.763c.026-.088.073-.165.1-.249a3.306,3.306,0,0,1,.191-.455c.055-.1.136-.172.2-.26a3.018,3.018,0,0,1,.264-.341,2.817,2.817,0,0,1,.286-.22,2.96,2.96,0,0,1,.323-.253h0l35.243-20.289a2.937,2.937,0,0,1,2.934,0l35.24,20.289a3.236,3.236,0,0,1,.33.249c.092.073.2.139.282.22a3.436,3.436,0,0,1,.264.345,2.216,2.216,0,0,1,.2.26,2.906,2.906,0,0,1,.191.455,2.1,2.1,0,0,1,.1.249Zm-5.772,39.3V48.25l-12.332,7.1-17.037,9.809V98.615l29.372-16.908Zm-35.24,60.523V108.751l-16.758,9.571L76.354,145.633v33.795ZM5.874,28.3V142.23l64.6,37.194V145.637l-33.751-19.1-.011-.007-.015-.007a135.665,135.665,0,0,0-.594-.455l-.007-.011a2.8,2.8,0,0,1-.242-.308,3.137,3.137,0,0,1-.22-.286l0-.011a2.34,2.34,0,0,1-.154-.367,2.17,2.17,0,0,1-.139-.33v0a2.806,2.806,0,0,1-.059-.429,2.544,2.544,0,0,1-.044-.33V45.213L18.206,35.4,5.874,28.309ZM38.18,6.325,8.819,23.226l29.354,16.9,29.358-16.9L38.173,6.325ZM53.45,111.8,70.483,102V28.3L58.151,35.4,41.114,45.213V118.9ZM143.9,26.27l-29.358,16.9,29.358,16.9,29.354-16.9Zm-2.937,38.888-17.037-9.809L111.6,48.25V81.707l17.033,9.805,12.336,7.1Zm-67.553,75.4,43.061-24.583L138,103.687,108.663,86.8,74.887,106.243,44.1,123.965Z" fill="#fff"/>
</svg>
