<svg xmlns="http://www.w3.org/2000/svg" width="66.816" height="148.754" viewBox="0 0 66.816 148.754">
  <g id="mongodb-icon-1" transform="translate(-8.813 0)">
    <path id="Trazado_186" data-name="Trazado 186" d="M15.989.087l3.97,7.456a22.274,22.274,0,0,0,3,3.728A104.149,104.149,0,0,1,32.272,21.8a91.536,91.536,0,0,1,14.5,29.247A71.918,71.918,0,0,1,49.851,70.9c.325,20.094-6.563,37.348-20.452,51.688a59.033,59.033,0,0,1-7.3,6.238c-1.376,0-2.027-1.055-2.594-2.027a16.682,16.682,0,0,1-2.027-5.834,28.186,28.186,0,0,1-.651-7.372v-1.134c-.112-.242-1.325-111.8-.841-112.371Z" transform="translate(25.766 0.319)" fill="#e5e5e5"/>
    <path id="Trazado_187" data-name="Trazado 187" d="M41.755.16c-.163-.325-.325-.079-.488.079A7.49,7.49,0,0,1,39.891,4.7a21.38,21.38,0,0,1-3.565,3.565,77.642,77.642,0,0,0-17.417,22.2A89.179,89.179,0,0,0,8.869,66.759c-.4,4.616,1.46,20.9,2.914,25.6,3.97,12.476,11.1,22.93,20.336,32a88.858,88.858,0,0,0,7.2,6.159c.73,0,.809-.651.976-1.134a22.216,22.216,0,0,0,.73-3.161l1.627-12.15Z" transform="translate(0 0)" fill="#fff"/>
    <path id="Trazado_188" data-name="Trazado 188" d="M21.778,46.327A11.091,11.091,0,0,1,23.8,41.386a5.113,5.113,0,0,1-2.268-2.106,15.038,15.038,0,0,1-1.209-2.673,46.261,46.261,0,0,1-1.7-10.449V24.053c-.4.325-.488,3.077-.488,3.486a80.743,80.743,0,0,1-1.46,10.937,9.732,9.732,0,0,1-1.3,4.211,1.613,1.613,0,0,0,.079.567,48.375,48.375,0,0,1,2.106,13.127v1.627c0,1.943-.079,1.534,1.534,2.185A7.1,7.1,0,0,1,21.122,61c.488,0,.567-.4.567-.73L21.448,57.6V50.143a19.717,19.717,0,0,1,.325-3.812Z" transform="translate(23.947 87.752)" fill="#cbcbcb"/>
  </g>
</svg>
