<svg xmlns="http://www.w3.org/2000/svg" width="150.852" height="148.08" viewBox="0 0 150.852 148.08">
  <g id="mysql-6" transform="translate(-0.024)">
    <path id="Trazado_189" data-name="Trazado 189" d="M138.975,114.53c-8.208-.2-14.569.616-19.9,2.873-1.539.615-4,.616-4.207,2.565.821.821.923,2.155,1.642,3.283a24.052,24.052,0,0,0,5.335,6.259c2.154,1.641,4.31,3.282,6.566,4.719,4,2.463,8.517,3.9,12.415,6.361,2.258,1.435,4.514,3.284,6.771,4.822,1.129.82,1.846,2.155,3.284,2.667v-.307c-.719-.924-.924-2.257-1.642-3.284-1.025-1.026-2.052-1.95-3.078-2.976a48.664,48.664,0,0,0-10.67-10.362c-3.283-2.257-10.466-5.335-11.8-9.132l-.205-.2a41.724,41.724,0,0,0,7.08-1.642c3.488-.924,6.668-.718,10.26-1.642,1.641-.41,3.283-.923,4.924-1.437v-.923c-1.846-1.847-3.18-4.309-5.129-6.053A136.8,136.8,0,0,0,123.688,97.5c-3.181-2.052-7.285-3.386-10.671-5.13-1.23-.616-3.283-.923-4-1.95-1.848-2.257-2.874-5.232-4.207-7.9-2.975-5.644-5.848-11.9-8.413-17.852-1.846-4-2.975-8-5.232-11.7C80.6,35.529,69.1,24.961,51.458,14.6c-3.8-2.154-8.311-3.078-13.133-4.206-2.564-.1-5.13-.308-7.695-.411-1.642-.718-3.284-2.667-4.72-3.591C20.064,2.7,4.981-5.305.672,5.263-2.1,11.931,4.776,18.5,7.135,21.884c1.746,2.359,4,5.027,5.233,7.695.718,1.743.923,3.591,1.641,5.438,1.642,4.513,3.18,9.542,5.336,13.749a49.606,49.606,0,0,0,3.8,6.361c.821,1.128,2.257,1.642,2.565,3.488-1.436,2.052-1.539,5.131-2.361,7.7-3.693,11.594-2.256,25.957,2.976,34.473,1.641,2.564,5.54,8.209,10.773,6.053,4.617-1.846,3.591-7.695,4.924-12.825.309-1.233.1-2.052.719-2.873v.206c1.437,2.872,2.872,5.643,4.206,8.515,3.181,5.027,8.721,10.26,13.338,13.749,2.463,1.846,4.412,5.027,7.491,6.155v-.308h-.206a11.345,11.345,0,0,0-2.359-2.052,49.744,49.744,0,0,1-5.335-6.155A132.012,132.012,0,0,1,48.38,92.573c-1.641-3.18-3.078-6.668-4.412-9.849-.616-1.232-.616-3.078-1.642-3.693-1.539,2.257-3.8,4.206-4.925,6.976-1.948,4.412-2.154,9.849-2.872,15.492-.41.1-.206,0-.411.206-3.282-.822-4.411-4.207-5.643-7.08-3.078-7.284-3.591-18.981-.923-27.393.718-2.155,3.8-8.926,2.565-10.978-.616-1.95-2.668-3.078-3.8-4.617a41.338,41.338,0,0,1-3.693-6.566c-2.463-5.746-3.694-12.107-6.361-17.852a54.607,54.607,0,0,0-5.13-7.9c-1.949-2.77-4.1-4.72-5.643-8-.512-1.128-1.231-2.975-.41-4.206A1.634,1.634,0,0,1,6.52,5.776c1.334-1.129,5.131.307,6.463.923a52.3,52.3,0,0,1,10.158,5.13c1.436,1.026,2.975,2.976,4.821,3.489h2.155c3.284.718,6.976.205,10.055,1.128a65.566,65.566,0,0,1,14.775,7.08A91.025,91.025,0,0,1,86.957,58.613c1.231,2.359,1.744,4.515,2.872,6.976,2.155,5.028,4.823,10.158,6.976,15.083,2.155,4.822,4.206,9.747,7.285,13.749,1.539,2.154,7.695,3.283,10.465,4.412,2.052.923,5.233,1.744,7.08,2.872,3.488,2.154,6.976,4.617,10.26,6.976,1.642,1.231,6.771,3.8,7.08,5.848Z" transform="translate(0 0)" fill="#fff"/>
    <path id="Trazado_190" data-name="Trazado 190" d="M55.26,43.022a16.258,16.258,0,0,0-4.206.514v.205h.205c.821,1.642,2.257,2.77,3.282,4.206.821,1.641,1.539,3.284,2.361,4.925l.2-.205c1.437-1.027,2.155-2.668,2.155-5.131a22.975,22.975,0,0,1-1.231-2.154C57.415,44.356,56.081,43.843,55.26,43.022Z" transform="translate(-20.937 -17.651)" fill="#fff"/>
  </g>
</svg>
