<svg id="php" xmlns="http://www.w3.org/2000/svg" width="267.276" height="139.13" viewBox="0 0 267.276 139.13">
  <path id="Trazado_171" data-name="Trazado 171" d="M133.638,0c73.806,0,133.638,31.145,133.638,69.565S207.445,139.13,133.638,139.13,0,107.985,0,69.565,59.832,0,133.638,0Z" transform="translate(0 0)" fill="#fff"/>
  <path style="fill-opacity: 0.35;" id="Trazado_170" data-name="Trazado 170" d="M35.945,110.021,50.591,35.879H84.457c14.645.916,21.968,8.238,21.968,21.053,0,21.968-17.391,34.782-32.952,33.867H57l-3.661,19.222ZM60.659,77.07l4.577-27.461h11.9c6.407,0,10.983,2.746,10.983,8.238C87.2,73.408,79.881,76.154,71.643,77.07H60.66ZM103.022,90.8l14.645-74.141h17.392L131.4,35.879h16.475c14.646.916,20.138,8.238,18.307,17.392L159.772,90.8H141.466l6.407-33.867c.915-4.577.915-7.323-5.492-7.323h-13.73L120.414,90.8ZM158.6,110.021l14.645-74.142h33.867c14.646.916,21.969,8.238,21.969,21.053,0,21.968-17.392,34.782-32.952,33.867H179.652l-3.661,19.222ZM183.312,77.07l4.577-27.461h11.9c6.407,0,10.983,2.746,10.983,8.238-.915,15.562-8.238,18.307-16.475,19.223H183.313Z" transform="translate(1.583 0.734)"  fill-rule="evenodd"/>
</svg>
