<svg xmlns="http://www.w3.org/2000/svg" width="157.431" height="156.613" viewBox="0 0 157.431 156.613">
  <g id="python" transform="translate(-0.145 -0.072)">
    <path id="Trazado_206" data-name="Trazado 206" d="M78.293.072C38.328.072,40.823,17.4,40.823,17.4l.044,17.956H79.006v5.391H25.719S.145,37.85.145,78.175s22.322,38.9,22.322,38.9H35.788V98.359S35.07,76.037,57.754,76.037H95.581s21.252.343,21.252-20.54V20.969S120.061.072,78.293.072ZM57.264,12.147a6.855,6.855,0,1,1-4.853,2.008A6.855,6.855,0,0,1,57.264,12.147Z" transform="translate(0)" fill="#232424"/>
    <path id="Trazado_207" data-name="Trazado 207" d="M104.742,181.327c39.966,0,37.471-17.332,37.471-17.332l-.044-17.955H104.029v-5.391h53.287s25.574,2.9,25.574-37.426-22.322-38.9-22.322-38.9H147.247V83.04s.718,22.322-21.966,22.322H87.454S66.2,105.018,66.2,125.9v34.529s-3.227,20.9,38.539,20.9Zm21.03-12.074a6.856,6.856,0,1,1,4.853-2.008,6.855,6.855,0,0,1-4.853,2.008Z" transform="translate(-25.314 -24.642)" fill="#404040"/>
  </g>
</svg>
