<svg xmlns="http://www.w3.org/2000/svg" width="149.639" height="183.221" viewBox="0 0 149.639 183.221">
  <g id="raspberry-pi" transform="translate(11 0)">
    <path id="Trazado_197" data-name="Trazado 197" d="M34,0a5.132,5.132,0,0,0-3.056,1.264C28.175.2,25.486-.174,23.082,2c-3.712-.481-4.918.512-5.832,1.672-.815-.017-6.1-.838-8.52,2.776C2.643,5.731.719,10.032,2.9,14.043c-1.244,1.925-2.532,3.826.375,7.5-1.028,2.043-.391,4.261,2.032,6.943-.639,2.873.618,4.9,2.872,6.48-.422,3.932,3.605,6.218,4.808,7.032.462,2.291,1.424,4.453,6.024,5.648.759,3.414,3.523,4,6.2,4.72C16.363,57.5,8.775,64.271,8.827,80.874l-1.3,2.312c-10.145,6.169-19.273,26-5,42.116.932,5.045,2.5,8.669,3.888,12.68C8.5,154.143,22.09,161.711,25.675,162.606c5.252,4,10.846,7.8,18.416,10.456,7.135,7.359,14.866,10.164,22.639,10.16.114,0,15.848-2.8,22.984-10.16,7.569-2.659,13.163-6.455,18.416-10.456,3.583-.9,17.173-8.463,19.255-24.624,1.392-4.011,2.956-7.634,3.888-12.68,14.272-16.119,5.145-35.949-5-42.119l-1.3-2.312c.052-16.6-7.536-23.368-16.384-28.513,2.677-.716,5.442-1.306,6.2-4.72,4.6-1.2,5.562-3.357,6.024-5.648,1.2-.814,5.23-3.1,4.809-7.032,2.254-1.58,3.511-3.607,2.871-6.48,2.423-2.683,3.061-4.9,2.032-6.944,2.909-3.668,1.618-5.569.376-7.494,2.179-4.011.256-8.313-5.834-7.592-2.421-3.614-7.7-2.793-8.52-2.776-.914-1.16-2.12-2.153-5.831-1.672-2.4-2.176-5.092-1.805-7.864-.736-3.292-2.6-5.47-.516-7.958.272C90.91.236,90,2.019,88.04,2.746c-4.347-.919-5.668,1.081-7.751,3.192L77.864,5.89C71.308,9.754,68.051,17.621,66.9,21.666c-1.155-4.045-4.4-11.913-10.96-15.776l-2.424.048c-2.087-2.111-3.407-4.11-7.754-3.192C43.8,2.019,42.892.236,38.9,1.538,37.27,1.021,35.768-.053,34,0L-11,79.023" transform="translate(0 0)" fill="#232424"/>
    <path id="Trazado_198" data-name="Trazado 198" d="M34.574,20.643C51.968,29.61,62.08,36.865,67.62,43.043c-2.837,11.371-17.637,11.89-23.049,11.571a4.067,4.067,0,0,0,2.361-2.083c-1.358-.965-6.173-.1-9.534-1.99a3.159,3.159,0,0,0,2.5-1.481c-3.175-1.013-6.6-1.886-8.608-3.564a4.863,4.863,0,0,0,3.517-.74c-2.844-1.533-5.88-2.748-8.238-5.091,1.471-.036,3.056-.015,3.517-.555a31.717,31.717,0,0,1-6.618-5.369c2.058.248,2.927.035,3.425-.324-1.968-2.016-4.459-3.718-5.646-6.2,1.528.527,2.926.729,3.934-.046-.669-1.509-3.534-2.4-5.184-5.924,1.609.156,3.315.351,3.656,0a17.372,17.372,0,0,0-3.284-6.525c3.443-.051,8.659.013,8.424-.277l-2.129-2.175c3.363-.906,6.8.145,9.3.925,1.121-.885-.02-2-1.389-3.147a33.809,33.809,0,0,1,7.776,1.944c1.247-1.126-.81-2.252-1.805-3.378A19.887,19.887,0,0,1,48.692,11.8c1.349-1.293.077-2.392-.833-3.517a19.933,19.933,0,0,1,6.85,4.4c.612-.826,1.555-1.432.416-3.425a17.365,17.365,0,0,1,5.462,4.767c1.463-.931.871-2.2.879-3.379a54.463,54.463,0,0,1,5.924,6.2c.384-.28.721-1.229,1.018-2.73C74.269,19.8,82.551,34.126,70.537,39.8,60.313,31.372,48.1,25.243,34.57,20.645l0,0m92.293,0c-17.392,8.969-27.5,16.221-33.043,22.4,2.837,11.371,17.637,11.89,23.048,11.571a4.064,4.064,0,0,1-2.36-2.083c1.358-.965,6.173-.1,9.534-1.99a3.16,3.16,0,0,1-2.5-1.481c3.176-1.013,6.6-1.886,8.608-3.564a4.863,4.863,0,0,1-3.517-.74c2.845-1.533,5.88-2.748,8.239-5.091-1.471-.036-3.057-.015-3.517-.555a31.718,31.718,0,0,0,6.618-5.369c-2.059.248-2.927.035-3.425-.324,1.968-2.016,4.459-3.718,5.646-6.2-1.528.527-2.927.729-3.934-.046.669-1.509,3.534-2.4,5.184-5.924-1.608.156-3.315.351-3.656,0a17.394,17.394,0,0,1,3.286-6.526c-3.443-.051-8.659.013-8.424-.277l2.129-2.176c-3.363-.905-6.8.146-9.3.926-1.121-.885.02-2,1.388-3.147a33.776,33.776,0,0,0-7.775,1.944c-1.248-1.126.81-2.252,1.805-3.378a19.893,19.893,0,0,0-8.146,3.193c-1.349-1.293-.077-2.392.833-3.517a19.933,19.933,0,0,0-6.85,4.4c-.613-.826-1.555-1.432-.417-3.425a17.369,17.369,0,0,0-5.461,4.767c-1.463-.931-.871-2.205-.879-3.379a54.419,54.419,0,0,0-5.924,6.2c-.384-.28-.721-1.229-1.018-2.731C87.176,19.8,78.894,34.125,90.908,39.8c10.219-8.435,22.429-14.563,35.962-19.161h0" transform="translate(-13.624 -3.642)" fill="#fff"/>
    <path id="Trazado_199" data-name="Trazado 199" d="M97.545,173.162c.061,10.611-9.219,19.258-20.725,19.313s-20.884-8.5-20.945-19.111q0-.1,0-.2c-.061-10.61,9.218-19.257,20.725-19.314s20.884,8.5,20.945,19.111v.2M64.654,118.278c8.633,5.657,10.189,18.477,3.476,28.636s-19.154,13.81-27.787,8.154-10.189-18.477-3.476-28.636,19.154-13.81,27.787-8.154m23.3-1.024c-8.633,5.656-10.189,18.477-3.476,28.636s19.154,13.81,27.787,8.153,10.189-18.477,3.476-28.636S96.589,111.6,87.955,117.254M21.506,127.525c9.321-2.5,3.147,38.56-4.437,35.192-8.342-6.71-11.029-26.359,4.437-35.192m107.715-.512c-9.322-2.5-3.147,38.563,4.437,35.194,8.342-6.71,11.029-26.362-4.437-35.194M97.552,96.438c16.085-2.716,29.47,6.841,28.93,24.283-.529,6.687-34.856-23.287-28.93-24.283m-44.443-.512c-16.086-2.716-29.47,6.842-28.93,24.284.529,6.687,34.856-23.288,28.93-24.284m23.106-4.068c-9.6-.25-18.814,7.125-18.837,11.4-.026,5.2,7.591,10.52,18.9,10.655,11.551.082,18.922-4.26,18.959-9.624.043-6.077-10.506-12.528-19.024-12.434h0M76.8,198.444c8.37-.365,19.6,2.7,19.624,6.757.139,3.943-10.186,12.853-20.179,12.681-10.349.447-20.5-8.477-20.364-11.57-.155-4.535,12.6-8.076,20.919-7.868M45.885,174.375c5.959,7.179,8.676,19.793,3.7,23.511-4.7,2.839-16.131,1.67-24.252-10-5.477-9.79-4.772-19.752-.926-22.678,5.751-3.5,14.636,1.229,21.475,9.164h0m60.64-2.276c-6.448,7.552-10.038,21.327-5.335,25.763,4.5,3.447,16.571,2.965,25.489-9.409,6.475-8.311,4.306-22.19.607-25.876-5.495-4.25-13.383,1.189-20.761,9.52v0" transform="translate(-9.383 -40.374)" fill="#fff"/>
  </g>
</svg>
