<svg xmlns="http://www.w3.org/2000/svg" xmlns:xlink="http://www.w3.org/1999/xlink" width="228.21" height="136.926" viewBox="0 0 228.21 136.926">
  <defs>
    <linearGradient id="linear-gradient" x1="-0.028" y1="0.32" x2="1" y2="0.676" gradientUnits="objectBoundingBox">
      <stop offset="0" stop-color="#dedede"/>
      <stop offset="1" stop-color="#fff"/>
    </linearGradient>
  </defs>
  <path id="tailwindcss" d="M114.105,0Q68.464,0,57.053,45.642,74.168,22.821,96.989,28.526c8.68,2.17,14.884,8.468,21.752,15.438,11.188,11.356,24.135,24.5,52.416,24.5q45.642,0,57.053-45.642-17.116,22.821-39.937,17.116c-8.68-2.17-14.884-8.468-21.752-15.438C155.334,13.143,142.386,0,114.105,0ZM57.053,68.463Q11.411,68.463,0,114.105,17.116,91.284,39.937,96.989c8.68,2.17,14.884,8.468,21.752,15.438,11.188,11.356,24.135,24.5,52.416,24.5q45.642,0,57.053-45.642-17.116,22.821-39.937,17.116c-8.68-2.17-14.884-8.468-21.752-15.438C98.281,81.606,85.334,68.463,57.053,68.463Z" fill="url(#linear-gradient)"/>
</svg>
