<svg id="typescript" xmlns="http://www.w3.org/2000/svg" width="145" height="148.754" viewBox="0 0 145 148.754">
  <path id="Trazado_163" data-name="Trazado 163" d="M0,74.377V0H145V148.754H0" fill="#fff"/>
  <path style="fill-opacity: 0.35;" id="Trazado_164" data-name="Trazado 164" d="M87.7,188.971v6.062h19.338v55.039h13.723V195.033H140.1v-5.95a46.359,46.359,0,0,0-.149-6.136c0-.112-11.789-.149-26.106-.149l-26.032.112v6.1l-.112-.037Zm86.91-6.21a18.006,18.006,0,0,1,9.3,5.318c1.376,1.488,3.421,4.091,3.57,4.76,0,.223-6.434,4.574-10.338,6.991-.149.112-.744-.521-1.339-1.488-1.934-2.752-3.9-3.942-6.991-4.165-4.463-.3-7.438,2.045-7.438,5.95a5.876,5.876,0,0,0,.669,2.826c1,2.045,2.864,3.273,8.628,5.8,10.636,4.574,15.247,7.586,18.036,11.9,3.161,4.835,3.868,12.421,1.748,18.111-2.38,6.21-8.182,10.413-16.475,11.789a46.392,46.392,0,0,1-11.343-.112c-5.95-1.116-11.64-4.091-15.136-7.921-1.376-1.488-4.016-5.467-3.868-5.727l1.413-.892,5.578-3.235,4.2-2.454.967,1.3a20.236,20.236,0,0,0,5.578,5.43c4.835,2.492,11.305,2.157,14.5-.744a5.573,5.573,0,0,0,1.971-4.463,5.739,5.739,0,0,0-1.116-3.793c-1.19-1.636-3.57-2.975-10.264-5.95-7.7-3.273-10.971-5.355-14.02-8.553A21.125,21.125,0,0,1,148.355,206a28.48,28.48,0,0,1-.223-9.557c1.6-7.438,7.215-12.644,15.247-14.132a36.044,36.044,0,0,1,11.305.372l-.074.074Z" transform="translate(-58.84 -114.333)" />
</svg>
