<svg xmlns="http://www.w3.org/2000/svg" width="1193.053" height="671.599" viewBox="0 0 1193.053 671.599">
  <g id="_562498" data-name="562498" transform="translate(0.05 0.028)">
    <path id="Trazado_224" data-name="Trazado 224" d="M164.5-719.677a37.153,37.153,0,0,0-25.537,28.333c-.746,3.541-1.025,84.9-1.025,294.229v289.383H0v18.081c0,18.081,0,18.174,2.33,20.97,2.423,2.8,12.582,8.481,15.192,8.481.746,0,4.753,1.584,8.947,3.635,4.1,1.957,9.879,4.38,12.675,5.312,4.94,1.678,21.529,1.771,554.537,2.05,359.47.093,551.181-.093,554.537-.746,2.8-.466,8.947-2.7,13.514-5.033,4.66-2.237,10.532-4.753,13.048-5.592a41,41,0,0,0,14.819-8.668l3.355-2.982v-35.509h-137l-.186-292.924-.28-292.924-3.542-7.083a35.074,35.074,0,0,0-17.335-17.242l-5.219-2.61L598.806-720.7C252.757-720.795,167.479-720.608,164.5-719.677Z" transform="translate(0 720.723)" fill="#434343" stroke="#8a8a8a" stroke-width="0.1"/>
  </g>
</svg>
