<?xml version="1.0" standalone="no"?>
<!DOCTYPE svg PUBLIC "-//W3C//DTD SVG 20010904//EN"
 "http://www.w3.org/TR/2001/REC-SVG-20010904/DTD/svg10.dtd">
<svg version="1.0" xmlns="http://www.w3.org/2000/svg"
 width="817.000000pt" height="645.000000pt" viewBox="0 0 817.000000 645.000000"
 preserveAspectRatio="xMidYMid meet">

<g transform="translate(0.000000,645.000000) scale(0.100000,-0.100000)"
fill="#232424" stroke="none">
<path d="M3945 6439 c-603 -52 -1165 -263 -1638 -617 -306 -230 -544 -480
-758 -801 -62 -93 -89 -126 -89 -110 0 54 -66 119 -120 119 -55 0 -120 -65
-120 -120 0 -56 65 -120 122 -120 13 0 37 8 54 19 30 18 30 18 -28 -98 -36
-70 -72 -128 -92 -146 -47 -42 -59 -69 -52 -120 5 -32 1 -58 -17 -106 -58
-155 -134 -460 -152 -611 -4 -32 -9 -58 -11 -58 -2 0 -18 9 -36 20 -18 11 -44
20 -58 20 -56 0 -120 -65 -120 -122 0 -53 66 -118 120 -118 12 0 35 7 52 16
l31 16 -6 -68 c-4 -38 -7 -95 -7 -128 0 -52 -2 -57 -17 -51 -60 26 -120 7
-153 -48 -25 -41 -25 -73 0 -114 34 -57 95 -76 149 -49 l28 15 12 -117 c7 -64
15 -130 18 -147 l6 -30 -24 21 c-32 29 -63 44 -89 44 -55 0 -120 -65 -120
-120 0 -56 65 -120 122 -120 32 0 86 35 100 65 6 14 14 25 17 25 3 0 19 -57
35 -127 32 -144 105 -372 164 -515 l40 -96 -24 -11 c-30 -13 -64 -67 -64 -101
0 -36 34 -86 71 -105 30 -16 56 -16 106 0 18 6 25 0 43 -35 46 -90 256 -399
272 -400 4 0 8 174 10 388 l3 387 23 33 c13 18 41 41 62 52 38 19 62 20 882
20 l843 -1 222 68 222 68 29 50 c36 60 61 134 64 193 l3 44 -90 32 c-168 61
-263 121 -354 223 -60 66 -121 186 -145 286 -13 52 -34 263 -36 363 0 6 -18
19 -40 29 -47 21 -98 74 -158 162 -42 62 -43 62 -62 43 -29 -29 -63 -34 -105
-15 -120 58 -264 466 -254 723 l4 90 -23 -9 c-50 -19 -92 -11 -129 26 l-36 36
6 127 c6 149 33 258 97 391 165 343 476 606 877 740 160 53 260 71 439 78
l151 6 -4 42 c-4 34 -1 47 20 71 20 23 33 29 65 28 56 -2 143 -45 195 -96 l44
-44 38 33 c48 41 103 68 182 88 55 14 66 14 97 1 47 -20 55 -53 30 -125 -27
-76 -46 -79 -28 -4 16 68 11 91 -21 99 -48 12 -189 -38 -262 -92 -38 -28 -46
-29 -64 -7 -24 29 -126 89 -173 103 -40 11 -49 10 -71 -4 -22 -14 -25 -24 -25
-71 0 -30 -3 -55 -7 -55 -46 0 -247 -25 -327 -40 -562 -109 -1024 -489 -1162
-957 -34 -117 -45 -290 -20 -316 48 -48 127 1 153 94 12 44 21 59 34 59 28 0
29 -11 7 -85 -55 -193 -1 -523 130 -778 48 -94 78 -121 107 -97 22 18 19 45
-15 130 -32 82 -39 140 -16 140 8 0 37 -42 64 -92 86 -160 217 -328 255 -328
21 0 21 7 1 100 -20 91 -23 345 -5 440 59 316 252 634 443 731 51 26 78 33
145 37 70 4 86 1 120 -18 l40 -22 37 26 c45 30 106 41 197 33 267 -22 425
-298 470 -819 10 -118 2 -321 -16 -408 -3 -14 -8 -53 -12 -87 -5 -53 -3 -64
11 -69 49 -19 130 99 240 350 20 45 29 57 38 48 18 -18 -16 -150 -67 -258 -44
-94 -50 -146 -18 -158 41 -16 249 119 368 240 46 46 108 124 145 182 36 56 68
102 73 102 16 0 5 -39 -33 -115 -22 -43 -39 -80 -37 -81 1 -1 21 -5 43 -9 l42
-6 39 73 c45 84 87 183 137 318 20 52 41 97 48 99 26 8 84 78 117 141 41 77
50 164 32 306 -39 305 -150 544 -331 717 -98 94 -196 160 -355 238 -172 84
-291 122 -387 123 -78 1 -94 7 -60 24 89 46 293 1 534 -118 196 -97 335 -209
448 -360 57 -75 134 -237 164 -342 56 -193 73 -444 37 -538 -29 -76 -104 -175
-150 -197 -37 -17 -39 -21 -51 -88 -22 -125 -100 -300 -173 -390 l-25 -30 19
-27 c11 -15 25 -52 31 -81 24 -113 -40 -307 -129 -393 -52 -51 -99 -68 -162
-61 l-46 5 -32 -88 c-54 -146 -66 -212 -67 -360 -1 -117 2 -142 22 -190 34
-86 87 -144 162 -178 92 -42 210 -78 315 -97 151 -27 207 -49 258 -104 60 -64
83 -140 98 -319 16 -194 -4 -512 -32 -512 -5 0 -9 83 -9 188 0 103 -4 237 -10
297 -26 290 -69 351 -274 391 -117 22 -253 67 -339 111 -37 20 -69 34 -71 32
-1 -2 -14 -25 -29 -50 -37 -64 -145 -162 -219 -198 l-63 -30 343 -1 c367 0
372 -1 418 -52 51 -55 49 -26 54 -796 l5 -723 100 72 c55 39 131 97 170 128
97 78 332 309 418 409 51 61 74 81 86 76 58 -25 118 -6 151 49 26 41 25 70 -1
117 l-22 38 44 69 c23 37 66 110 95 162 l52 94 17 -32 c18 -36 69 -71 103 -71
57 0 122 64 122 120 0 77 -98 143 -162 109 -17 -9 -20 -9 -16 2 64 161 92 218
114 228 30 13 64 68 64 101 -1 14 -7 36 -14 49 -11 21 -10 36 10 110 161 582
146 1238 -40 1816 l-36 110 26 19 c29 22 54 66 54 98 0 63 -75 124 -139 115
l-36 -6 -30 67 c-42 93 -155 288 -236 407 -113 167 -235 312 -393 470 -194
193 -376 335 -615 479 -542 329 -1236 489 -1876 435z m625 -666 c0 -3 -36 -39
-80 -80 -135 -126 -220 -274 -258 -451 -10 -46 -22 -83 -27 -83 -17 1 -17 102
0 179 34 152 146 314 276 401 57 38 89 50 89 34z m192 -115 c21 -11 14 -13
-62 -19 -48 -4 -109 -16 -139 -27 -30 -12 -57 -20 -59 -17 -10 10 55 57 97 70
51 16 128 13 163 -7z m-634 -102 c30 -15 70 -56 56 -56 -5 0 -34 9 -64 21 -44
17 -70 20 -133 17 -84 -5 -98 7 -36 30 41 15 138 8 177 -12z m1108 -21 c143
-69 247 -196 279 -342 11 -52 -12 -39 -32 18 -45 128 -162 249 -305 317 -43
20 -78 40 -78 44 0 14 66 -4 136 -37z m-633 -136 c57 -15 44 -29 -27 -29 -65
0 -119 -17 -169 -52 -40 -29 -43 -16 -7 26 20 23 49 41 79 50 57 18 76 19 124
5z m-1139 -68 c7 -10 -6 -20 -129 -110 -115 -82 -201 -189 -263 -323 -40 -87
-57 -89 -49 -7 15 170 203 383 387 440 35 10 48 10 54 0z m-2055 -352 c43 -43
43 -95 0 -138 -23 -24 -39 -31 -69 -31 -54 0 -100 46 -100 100 0 54 46 100
100 100 30 0 46 -7 69 -31z m3891 -66 c51 -80 72 -149 78 -255 6 -116 -9 -200
-48 -278 -47 -94 -86 -111 -51 -22 67 169 64 365 -7 526 -39 87 -21 106 28 29z
m1919 -374 c40 -40 43 -93 6 -133 -14 -15 -30 -26 -36 -24 -11 4 -78 153 -79
176 0 7 14 12 39 12 31 0 46 -7 70 -31z m-5943 -24 c-8 -19 -20 -43 -25 -52
-9 -15 -10 -14 -11 10 0 29 26 77 41 77 5 0 3 -16 -5 -35z m-261 -851 c25 -23
27 -30 23 -81 -4 -44 -10 -59 -29 -74 -62 -48 -159 1 -159 81 0 85 103 132
165 74z m-14 -427 c11 -8 18 -35 21 -80 5 -60 3 -71 -15 -88 -55 -51 -157 1
-157 81 0 53 46 100 98 100 20 0 44 -6 53 -13z m18 -458 c43 -43 43 -95 0
-138 -23 -24 -39 -31 -69 -31 -54 0 -100 46 -100 100 0 54 46 100 100 100 30
0 46 -7 69 -31z m6231 -508 c0 -27 -7 -46 -26 -66 -14 -15 -27 -25 -29 -23 -8
7 39 137 47 132 4 -3 8 -22 8 -43z m-5889 -433 c46 -91 42 -108 -21 -108 -30
0 -46 7 -69 31 -43 43 -43 95 0 138 17 17 35 29 40 25 5 -3 28 -42 50 -86z
m5858 61 c24 -23 31 -39 31 -69 0 -54 -46 -100 -100 -100 -49 0 -100 46 -100
91 0 97 103 144 169 78z m-359 -511 c0 -28 -7 -44 -31 -68 -27 -26 -38 -31
-73 -28 -25 2 -41 8 -41 16 0 7 25 46 55 88 l54 75 18 -23 c10 -13 18 -40 18
-60z"/>
<path d="M63 5010 c-34 -21 -63 -66 -63 -100 0 -54 65 -120 118 -120 57 0 122
64 122 120 0 56 -65 120 -122 120 -13 0 -37 -9 -55 -20z m126 -31 c24 -23 31
-39 31 -69 0 -54 -46 -100 -100 -100 -30 0 -46 7 -69 31 -24 23 -31 39 -31 69
0 54 46 100 100 100 30 0 46 -7 69 -31z"/>
<path d="M453 5010 c-34 -21 -63 -66 -63 -100 0 -54 65 -120 118 -120 57 0
122 64 122 120 0 56 -65 120 -122 120 -13 0 -37 -9 -55 -20z m126 -31 c43 -43
43 -95 0 -138 -23 -24 -39 -31 -69 -31 -54 0 -100 46 -100 100 0 54 46 100
100 100 30 0 46 -7 69 -31z"/>
<path d="M893 5010 c-34 -21 -63 -66 -63 -100 0 -54 65 -120 118 -120 57 0
122 64 122 120 0 56 -65 120 -122 120 -13 0 -37 -9 -55 -20z m126 -31 c43 -43
43 -95 0 -138 -23 -24 -39 -31 -69 -31 -54 0 -100 46 -100 100 0 54 46 100
100 100 30 0 46 -7 69 -31z"/>
<path d="M7093 5010 c-34 -21 -63 -66 -63 -100 0 -54 65 -120 118 -120 57 0
122 64 122 120 0 56 -65 120 -122 120 -13 0 -37 -9 -55 -20z m126 -31 c24 -23
31 -39 31 -69 0 -30 -7 -46 -31 -69 -23 -24 -39 -31 -69 -31 -30 0 -46 7 -69
31 -24 23 -31 39 -31 69 0 54 46 100 100 100 30 0 46 -7 69 -31z"/>
<path d="M7533 5010 c-34 -21 -63 -66 -63 -100 0 -54 65 -120 118 -120 57 0
122 64 122 120 0 56 -65 120 -122 120 -13 0 -37 -9 -55 -20z m126 -31 c24 -23
31 -39 31 -69 0 -30 -7 -46 -31 -69 -23 -24 -39 -31 -69 -31 -30 0 -46 7 -69
31 -24 23 -31 39 -31 69 0 54 46 100 100 100 30 0 46 -7 69 -31z"/>
<path d="M7923 5010 c-34 -21 -63 -66 -63 -100 0 -54 65 -120 118 -120 57 0
122 64 122 120 0 56 -65 120 -122 120 -13 0 -37 -9 -55 -20z m126 -31 c24 -23
31 -39 31 -69 0 -30 -7 -46 -31 -69 -23 -24 -39 -31 -69 -31 -30 0 -46 7 -69
31 -24 23 -31 39 -31 69 0 54 46 100 100 100 30 0 46 -7 69 -31z"/>
<path d="M4250 4878 c-14 -6 -70 -11 -125 -12 -114 -2 -166 -19 -243 -83 -60
-49 -148 -169 -205 -280 -46 -89 -112 -271 -119 -326 l-3 -27 170 -4 c142 -2
181 -7 238 -25 75 -24 137 -72 157 -121 10 -23 17 -29 34 -24 12 3 34 1 48 -5
25 -9 28 -7 48 34 26 53 101 108 191 137 54 18 88 22 210 22 l146 0 -4 45 c-9
94 -62 330 -89 397 -56 142 -144 237 -248 269 -57 17 -169 19 -206 3z"/>
<path d="M63 4570 c-34 -21 -63 -66 -63 -100 0 -54 65 -120 118 -120 57 0 122
64 122 120 0 56 -65 120 -122 120 -13 0 -37 -9 -55 -20z m126 -31 c24 -23 31
-39 31 -69 0 -54 -46 -100 -100 -100 -30 0 -46 7 -69 31 -24 23 -31 39 -31 69
0 54 46 100 100 100 30 0 46 -7 69 -31z"/>
<path d="M453 4570 c-34 -21 -63 -66 -63 -100 0 -54 65 -120 118 -120 57 0
122 64 122 120 0 56 -65 120 -122 120 -13 0 -37 -9 -55 -20z m126 -31 c43 -43
43 -95 0 -138 -23 -24 -39 -31 -69 -31 -54 0 -100 46 -100 100 0 54 46 100
100 100 30 0 46 -7 69 -31z"/>
<path d="M893 4570 c-34 -21 -63 -66 -63 -100 0 -54 65 -120 118 -120 57 0
122 64 122 120 0 56 -65 120 -122 120 -13 0 -37 -9 -55 -20z m126 -31 c43 -43
43 -95 0 -138 -23 -24 -39 -31 -69 -31 -54 0 -100 46 -100 100 0 54 46 100
100 100 30 0 46 -7 69 -31z"/>
<path d="M7533 4570 c-34 -21 -63 -66 -63 -100 0 -54 65 -120 118 -120 57 0
122 64 122 120 0 56 -65 120 -122 120 -13 0 -37 -9 -55 -20z m126 -31 c24 -23
31 -39 31 -69 0 -30 -7 -46 -31 -69 -23 -24 -39 -31 -69 -31 -30 0 -46 7 -69
31 -24 23 -31 39 -31 69 0 54 46 100 100 100 30 0 46 -7 69 -31z"/>
<path d="M7923 4570 c-34 -21 -63 -66 -63 -100 0 -54 65 -120 118 -120 57 0
122 64 122 120 0 56 -65 120 -122 120 -13 0 -37 -9 -55 -20z m126 -31 c24 -23
31 -39 31 -69 0 -30 -7 -46 -31 -69 -23 -24 -39 -31 -69 -31 -30 0 -46 7 -69
31 -24 23 -31 39 -31 69 0 54 46 100 100 100 30 0 46 -7 69 -31z"/>
<path d="M63 4130 c-34 -21 -63 -66 -63 -100 0 -54 65 -120 118 -120 57 0 122
64 122 120 0 56 -65 120 -122 120 -13 0 -37 -9 -55 -20z m126 -31 c24 -23 31
-39 31 -69 0 -54 -46 -100 -100 -100 -30 0 -46 7 -69 31 -24 23 -31 39 -31 69
0 54 46 100 100 100 30 0 46 -7 69 -31z"/>
<path d="M453 4130 c-34 -21 -63 -66 -63 -100 0 -54 65 -120 118 -120 57 0
122 64 122 120 0 56 -65 120 -122 120 -13 0 -37 -9 -55 -20z m126 -31 c43 -43
43 -95 0 -138 -23 -24 -39 -31 -69 -31 -54 0 -100 46 -100 100 0 54 46 100
100 100 30 0 46 -7 69 -31z"/>
<path d="M893 4130 c-34 -21 -63 -66 -63 -100 0 -54 65 -120 118 -120 57 0
122 64 122 120 0 56 -65 120 -122 120 -13 0 -37 -9 -55 -20z m126 -31 c43 -43
43 -95 0 -138 -23 -24 -39 -31 -69 -31 -54 0 -100 46 -100 100 0 54 46 100
100 100 30 0 46 -7 69 -31z"/>
<path d="M7533 4130 c-34 -21 -63 -66 -63 -100 0 -54 65 -120 118 -120 57 0
122 64 122 120 0 56 -65 120 -122 120 -13 0 -37 -9 -55 -20z m126 -31 c24 -23
31 -39 31 -69 0 -30 -7 -46 -31 -69 -23 -24 -39 -31 -69 -31 -30 0 -46 7 -69
31 -24 23 -31 39 -31 69 0 54 46 100 100 100 30 0 46 -7 69 -31z"/>
<path d="M7923 4130 c-34 -21 -63 -66 -63 -100 0 -54 65 -120 118 -120 57 0
122 64 122 120 0 56 -65 120 -122 120 -13 0 -37 -9 -55 -20z m126 -31 c24 -23
31 -39 31 -69 0 -30 -7 -46 -31 -69 -23 -24 -39 -31 -69 -31 -30 0 -46 7 -69
31 -24 23 -31 39 -31 69 0 54 46 100 100 100 30 0 46 -7 69 -31z"/>
<path d="M4530 4130 c-65 -10 -142 -41 -188 -77 -130 -99 -76 -257 108 -318
42 -15 87 -19 195 -19 l140 -1 8 55 c4 30 6 124 5 210 l-3 155 -105 1 c-58 1
-130 -2 -160 -6z"/>
<path d="M3583 4123 c-26 -3 -33 -10 -38 -35 -10 -41 -10 -262 0 -316 9 -54
20 -57 195 -57 154 0 213 15 281 73 60 52 75 91 70 179 -2 32 -55 88 -99 106
-88 35 -318 63 -409 50z"/>
<path d="M4137 3933 c-4 -3 -7 -17 -7 -30 0 -13 -9 -40 -19 -61 -63 -122 -236
-187 -435 -162 -47 6 -92 13 -100 16 -11 4 -14 -6 -13 -54 2 -64 -18 -107 -55
-121 -19 -7 -21 -15 -19 -72 10 -282 70 -459 201 -589 237 -236 710 -313 1076
-175 258 97 453 270 575 511 42 83 43 85 26 113 -9 16 -17 39 -17 51 0 22 0
21 31 -4 65 -55 154 -26 217 69 83 126 99 351 27 379 -9 3 -32 6 -52 6 -30 0
-46 -11 -121 -83 -48 -46 -108 -98 -134 -115 -62 -43 -207 -112 -233 -112 -26
0 -65 27 -65 46 0 20 -2 18 -43 -20 -43 -41 -84 -52 -132 -36 -48 16 -69 58
-68 135 l2 60 -152 0 c-125 0 -161 3 -202 19 -105 40 -174 108 -190 186 -4 19
-13 38 -19 42 -14 10 -70 10 -79 1z m23 -203 c0 -11 -10 -45 -21 -76 -22 -59
-76 -120 -171 -197 -41 -32 -48 -43 -48 -73 0 -20 9 -48 20 -64 22 -30 93 -64
157 -75 54 -8 63 -21 22 -30 -104 -23 -238 50 -255 139 -12 68 12 107 110 180
60 44 136 128 136 149 0 3 7 21 15 41 16 37 35 40 35 6z m1437 8 c20 -16 35
-87 28 -132 -4 -22 -16 -62 -27 -88 -25 -59 -107 -138 -143 -138 -29 0 -75 40
-75 66 0 15 5 13 28 -9 15 -15 35 -27 44 -27 9 0 37 23 62 51 119 133 91 335
-33 237 -35 -27 -39 -13 -6 22 38 39 86 46 122 18z m-986 -646 c-26 -48 -120
-111 -210 -142 -89 -30 -258 -25 -269 8 -2 8 10 12 41 12 71 0 212 28 270 54
30 13 78 40 107 59 54 36 78 40 61 9z"/>
<path d="M63 3690 c-34 -21 -63 -66 -63 -100 0 -54 65 -120 118 -120 57 0 122
64 122 120 0 56 -65 120 -122 120 -13 0 -37 -9 -55 -20z m126 -31 c24 -23 31
-39 31 -69 0 -54 -46 -100 -100 -100 -30 0 -46 7 -69 31 -24 23 -31 39 -31 69
0 54 46 100 100 100 30 0 46 -7 69 -31z"/>
<path d="M453 3690 c-34 -21 -63 -66 -63 -100 0 -54 65 -120 118 -120 57 0
122 64 122 120 0 56 -65 120 -122 120 -13 0 -37 -9 -55 -20z m126 -31 c43 -43
43 -95 0 -138 -23 -24 -39 -31 -69 -31 -54 0 -100 46 -100 100 0 54 46 100
100 100 30 0 46 -7 69 -31z"/>
<path d="M7533 3690 c-34 -21 -63 -66 -63 -100 0 -54 65 -120 118 -120 57 0
122 64 122 120 0 56 -65 120 -122 120 -13 0 -37 -9 -55 -20z m126 -31 c24 -23
31 -39 31 -69 0 -30 -7 -46 -31 -69 -23 -24 -39 -31 -69 -31 -30 0 -46 7 -69
31 -24 23 -31 39 -31 69 0 54 46 100 100 100 30 0 46 -7 69 -31z"/>
<path d="M7923 3690 c-34 -21 -63 -66 -63 -100 0 -54 65 -120 118 -120 57 0
122 64 122 120 0 56 -65 120 -122 120 -13 0 -37 -9 -55 -20z m126 -31 c24 -23
31 -39 31 -69 0 -30 -7 -46 -31 -69 -23 -24 -39 -31 -69 -31 -30 0 -46 7 -69
31 -24 23 -31 39 -31 69 0 54 46 100 100 100 30 0 46 -7 69 -31z"/>
<path d="M63 3250 c-34 -21 -63 -66 -63 -100 0 -54 65 -120 118 -120 57 0 122
64 122 120 0 56 -65 120 -122 120 -13 0 -37 -9 -55 -20z m126 -31 c24 -23 31
-39 31 -69 0 -54 -46 -100 -100 -100 -30 0 -46 7 -69 31 -24 23 -31 39 -31 69
0 54 46 100 100 100 30 0 46 -7 69 -31z"/>
<path d="M453 3250 c-34 -21 -63 -66 -63 -100 0 -54 65 -120 118 -120 57 0
122 64 122 120 0 56 -65 120 -122 120 -13 0 -37 -9 -55 -20z m126 -31 c43 -43
43 -95 0 -138 -23 -24 -39 -31 -69 -31 -54 0 -100 46 -100 100 0 54 46 100
100 100 30 0 46 -7 69 -31z"/>
<path d="M7533 3250 c-34 -21 -63 -66 -63 -100 0 -54 65 -120 118 -120 57 0
122 64 122 120 0 56 -65 120 -122 120 -13 0 -37 -9 -55 -20z m126 -31 c24 -23
31 -39 31 -69 0 -30 -7 -46 -31 -69 -23 -24 -39 -31 -69 -31 -30 0 -46 7 -69
31 -24 23 -31 39 -31 69 0 54 46 100 100 100 30 0 46 -7 69 -31z"/>
<path d="M7923 3250 c-34 -21 -63 -66 -63 -100 0 -54 65 -120 118 -120 57 0
122 64 122 120 0 56 -65 120 -122 120 -13 0 -37 -9 -55 -20z m126 -31 c24 -23
31 -39 31 -69 0 -30 -7 -46 -31 -69 -23 -24 -39 -31 -69 -31 -30 0 -46 7 -69
31 -24 23 -31 39 -31 69 0 54 46 100 100 100 30 0 46 -7 69 -31z"/>
<path d="M5251 2979 c-65 -94 -232 -233 -358 -297 -134 -69 -296 -110 -469
-119 -106 -5 -254 6 -299 23 -8 4 -14 -13 -18 -54 -8 -77 -41 -165 -78 -207
l-30 -34 108 -58 108 -58 411 -3 410 -3 70 45 c120 77 202 144 249 206 l47 61
-36 39 c-94 105 -125 248 -91 426 8 43 14 79 12 80 -1 1 -17 -20 -36 -47z"/>
<path d="M63 2810 c-34 -21 -63 -66 -63 -100 0 -54 65 -120 118 -120 57 0 122
64 122 120 0 56 -65 120 -122 120 -13 0 -37 -9 -55 -20z m126 -31 c24 -23 31
-39 31 -69 0 -54 -46 -100 -100 -100 -30 0 -46 7 -69 31 -24 23 -31 39 -31 69
0 54 46 100 100 100 30 0 46 -7 69 -31z"/>
<path d="M453 2810 c-34 -21 -63 -66 -63 -100 0 -54 65 -120 118 -120 57 0
122 64 122 120 0 56 -65 120 -122 120 -13 0 -37 -9 -55 -20z m126 -31 c43 -43
43 -95 0 -138 -23 -24 -39 -31 -69 -31 -54 0 -100 46 -100 100 0 54 46 100
100 100 30 0 46 -7 69 -31z"/>
<path d="M7533 2810 c-34 -21 -63 -66 -63 -100 0 -54 65 -120 118 -120 57 0
122 64 122 120 0 56 -65 120 -122 120 -13 0 -37 -9 -55 -20z m126 -31 c24 -23
31 -39 31 -69 0 -30 -7 -46 -31 -69 -23 -24 -39 -31 -69 -31 -30 0 -46 7 -69
31 -24 23 -31 39 -31 69 0 54 46 100 100 100 30 0 46 -7 69 -31z"/>
<path d="M7923 2810 c-34 -21 -63 -66 -63 -100 0 -54 65 -120 118 -120 57 0
122 64 122 120 0 56 -65 120 -122 120 -13 0 -37 -9 -55 -20z m126 -31 c24 -23
31 -39 31 -69 0 -30 -7 -46 -31 -69 -23 -24 -39 -31 -69 -31 -30 0 -46 7 -69
31 -24 23 -31 39 -31 69 0 54 46 100 100 100 30 0 46 -7 69 -31z"/>
<path d="M63 2370 c-34 -21 -63 -66 -63 -100 0 -54 65 -120 118 -120 57 0 122
64 122 120 0 56 -65 120 -122 120 -13 0 -37 -9 -55 -20z m126 -31 c43 -43 43
-95 0 -138 -23 -24 -39 -31 -69 -31 -54 0 -100 46 -100 100 0 54 46 100 100
100 30 0 46 -7 69 -31z"/>
<path d="M453 2370 c-34 -21 -63 -66 -63 -100 0 -54 65 -120 118 -120 57 0
122 64 122 120 0 56 -65 120 -122 120 -13 0 -37 -9 -55 -20z m126 -31 c43 -43
43 -95 0 -138 -23 -24 -39 -31 -69 -31 -54 0 -100 46 -100 100 0 54 46 100
100 100 30 0 46 -7 69 -31z"/>
<path d="M893 2370 c-34 -21 -63 -66 -63 -100 0 -54 65 -120 118 -120 57 0
122 64 122 120 0 56 -65 120 -122 120 -13 0 -37 -9 -55 -20z m126 -31 c43 -43
43 -95 0 -138 -23 -24 -39 -31 -69 -31 -30 0 -46 7 -69 31 -43 43 -43 95 0
138 43 43 95 43 138 0z"/>
<path d="M7533 2370 c-34 -21 -63 -66 -63 -100 0 -54 65 -120 118 -120 57 0
122 64 122 120 0 56 -65 120 -122 120 -13 0 -37 -9 -55 -20z m126 -31 c24 -23
31 -39 31 -69 0 -54 -46 -100 -100 -100 -54 0 -100 46 -100 100 0 54 46 100
100 100 30 0 46 -7 69 -31z"/>
<path d="M7923 2370 c-34 -21 -63 -66 -63 -100 0 -54 65 -120 118 -120 57 0
122 64 122 120 0 56 -65 120 -122 120 -13 0 -37 -9 -55 -20z m126 -31 c24 -23
31 -39 31 -69 0 -54 -46 -100 -100 -100 -54 0 -100 46 -100 100 0 54 46 100
100 100 30 0 46 -7 69 -31z"/>
<path d="M3920 2239 c-25 -12 -74 -32 -110 -44 l-65 -24 175 0 c139 0 171 3
156 12 -10 7 -38 27 -61 45 -24 17 -45 32 -47 32 -2 0 -23 -10 -48 -21z"/>
<path d="M1840 2101 c-19 -10 -41 -29 -47 -42 -10 -18 -13 -128 -13 -430 l0
-405 36 -35 c20 -18 53 -59 74 -89 42 -62 186 -204 300 -296 575 -467 1264
-713 2005 -714 550 -1 1052 127 1525 387 l145 80 2 734 c2 572 0 739 -10 759
-7 13 -28 35 -46 47 l-34 23 -1951 0 c-1882 0 -1953 -1 -1986 -19z m601 -127
c26 -16 -27 -24 -222 -34 -236 -12 -245 -14 -259 -40 -6 -11 -15 -104 -20
-207 -8 -169 -17 -219 -36 -200 -4 3 -7 98 -8 211 -2 295 -8 289 321 282 117
-3 218 -8 224 -12z m1237 -868 c2 -15 -2 -41 -9 -57 -17 -42 -87 -99 -120 -99
-66 0 -61 67 11 142 41 43 52 49 81 46 29 -3 34 -7 37 -32z m242 -6 c27 -27
25 -75 -5 -137 -73 -147 -231 -246 -297 -186 -44 40 -2 159 87 249 88 88 172
117 215 74z m120 -165 c33 -39 -51 -165 -119 -180 -44 -10 -65 9 -57 53 14 88
136 175 176 127z"/>
<path d="M3603 1098 c-40 -28 -82 -103 -67 -118 23 -23 129 80 122 119 -5 23
-21 23 -55 -1z"/>
<path d="M3810 1071 c-50 -27 -137 -122 -160 -176 -25 -59 -25 -91 -1 -105 61
-32 218 110 252 227 20 70 -18 92 -91 54z"/>
<path d="M3958 899 c-31 -23 -68 -79 -68 -103 0 -26 27 -19 69 19 74 67 73
140 -1 84z"/>
<path d="M63 1930 c-34 -21 -63 -66 -63 -100 0 -54 65 -120 118 -120 57 0 122
64 122 120 0 56 -65 120 -122 120 -13 0 -37 -9 -55 -20z m126 -31 c43 -43 43
-95 0 -138 -23 -24 -39 -31 -69 -31 -54 0 -100 46 -100 100 0 54 46 100 100
100 30 0 46 -7 69 -31z"/>
<path d="M453 1930 c-34 -21 -63 -66 -63 -100 0 -54 65 -120 118 -120 57 0
122 64 122 120 0 56 -65 120 -122 120 -13 0 -37 -9 -55 -20z m126 -31 c43 -43
43 -95 0 -138 -23 -24 -39 -31 -69 -31 -54 0 -100 46 -100 100 0 54 46 100
100 100 30 0 46 -7 69 -31z"/>
<path d="M893 1930 c-34 -21 -63 -66 -63 -100 0 -54 65 -120 118 -120 57 0
122 64 122 120 0 56 -65 120 -122 120 -13 0 -37 -9 -55 -20z m126 -31 c43 -43
43 -95 0 -138 -23 -24 -39 -31 -69 -31 -30 0 -46 7 -69 31 -43 43 -43 95 0
138 43 43 95 43 138 0z"/>
<path d="M7533 1930 c-34 -21 -63 -66 -63 -100 0 -54 65 -120 118 -120 57 0
122 64 122 120 0 56 -65 120 -122 120 -13 0 -37 -9 -55 -20z m126 -31 c24 -23
31 -39 31 -69 0 -54 -46 -100 -100 -100 -54 0 -100 46 -100 100 0 54 46 100
100 100 30 0 46 -7 69 -31z"/>
<path d="M7923 1930 c-34 -21 -63 -66 -63 -100 0 -54 65 -120 118 -120 57 0
122 64 122 120 0 56 -65 120 -122 120 -13 0 -37 -9 -55 -20z m126 -31 c24 -23
31 -39 31 -69 0 -54 -46 -100 -100 -100 -54 0 -100 46 -100 100 0 54 46 100
100 100 30 0 46 -7 69 -31z"/>
<path d="M63 1490 c-34 -21 -63 -66 -63 -100 0 -54 65 -120 118 -120 57 0 122
64 122 120 0 56 -65 120 -122 120 -13 0 -37 -9 -55 -20z m126 -31 c43 -43 43
-95 0 -138 -23 -24 -39 -31 -69 -31 -54 0 -100 46 -100 100 0 54 46 100 100
100 30 0 46 -7 69 -31z"/>
<path d="M453 1490 c-34 -21 -63 -66 -63 -100 0 -54 65 -120 118 -120 57 0
122 64 122 120 0 56 -65 120 -122 120 -13 0 -37 -9 -55 -20z m126 -31 c43 -43
43 -95 0 -138 -23 -24 -39 -31 -69 -31 -54 0 -100 46 -100 100 0 54 46 100
100 100 30 0 46 -7 69 -31z"/>
<path d="M893 1490 c-34 -21 -63 -66 -63 -100 0 -54 65 -120 118 -120 57 0
122 64 122 120 0 56 -65 120 -122 120 -13 0 -37 -9 -55 -20z m126 -31 c43 -43
43 -95 0 -138 -23 -24 -39 -31 -69 -31 -30 0 -46 7 -69 31 -43 43 -43 95 0
138 43 43 95 43 138 0z"/>
<path d="M1283 1490 c-34 -21 -63 -66 -63 -100 0 -54 65 -120 118 -120 57 0
122 64 122 120 0 56 -65 120 -122 120 -13 0 -37 -9 -55 -20z m126 -31 c43 -43
43 -95 0 -138 -23 -24 -39 -31 -69 -31 -30 0 -46 7 -69 31 -43 43 -43 95 0
138 23 24 39 31 69 31 30 0 46 -7 69 -31z"/>
<path d="M7093 1490 c-34 -21 -63 -66 -63 -100 0 -54 65 -120 118 -120 57 0
122 64 122 120 0 56 -65 120 -122 120 -13 0 -37 -9 -55 -20z m126 -31 c24 -23
31 -39 31 -69 0 -54 -46 -100 -100 -100 -54 0 -100 46 -100 100 0 54 46 100
100 100 30 0 46 -7 69 -31z"/>
<path d="M7533 1490 c-34 -21 -63 -66 -63 -100 0 -54 65 -120 118 -120 57 0
122 64 122 120 0 56 -65 120 -122 120 -13 0 -37 -9 -55 -20z m126 -31 c24 -23
31 -39 31 -69 0 -54 -46 -100 -100 -100 -54 0 -100 46 -100 100 0 54 46 100
100 100 30 0 46 -7 69 -31z"/>
<path d="M7923 1490 c-34 -21 -63 -66 -63 -100 0 -54 65 -120 118 -120 57 0
122 64 122 120 0 56 -65 120 -122 120 -13 0 -37 -9 -55 -20z m126 -31 c24 -23
31 -39 31 -69 0 -54 -46 -100 -100 -100 -54 0 -100 46 -100 100 0 54 46 100
100 100 30 0 46 -7 69 -31z"/>
</g>
</svg>
