<?xml version="1.0" standalone="no"?>
<!DOCTYPE svg PUBLIC "-//W3C//DTD SVG 20010904//EN"
 "http://www.w3.org/TR/2001/REC-SVG-20010904/DTD/svg10.dtd">
<svg version="1.0" xmlns="http://www.w3.org/2000/svg"
 width="512.000000pt" height="512.000000pt" viewBox="0 0 512.000000 512.000000"
 preserveAspectRatio="xMidYMid meet">

<g transform="translate(0.000000,512.000000) scale(0.100000,-0.100000)"
fill="#C2C2C2" stroke="none">
<path d="M2885 5108 c-448 -50 -890 -279 -1188 -615 -101 -113 -225 -298 -287
-427 -55 -115 -119 -296 -144 -406 l-16 -75 -77 -40 c-891 -467 -1263 -1517
-861 -2430 87 -198 223 -395 385 -559 701 -707 1823 -743 2573 -82 280 247
500 617 580 974 10 46 20 85 22 87 1 2 39 22 83 45 181 95 330 206 478 357
622 632 713 1611 218 2349 -134 200 -173 231 -235 183 -41 -32 -35 -70 23
-143 369 -465 476 -1067 290 -1631 -40 -124 -146 -331 -227 -445 -86 -122
-290 -326 -412 -412 -418 -296 -947 -390 -1443 -257 -518 139 -959 532 -1157
1033 -17 43 -29 84 -27 90 7 17 158 94 239 122 74 25 218 54 268 54 25 0 31
-7 58 -74 181 -445 643 -739 1122 -713 448 24 830 291 1007 701 159 371 109
806 -130 1130 -400 542 -1161 634 -1677 202 -105 -88 -197 -200 -271 -333
l-24 -43 -63 0 c-137 0 -364 -36 -502 -79 -35 -11 -66 -18 -69 -15 -2 2 15 62
38 133 213 644 773 1096 1453 1170 447 49 904 -84 1264 -370 73 -58 111 -64
143 -23 46 58 23 92 -137 205 -375 267 -843 389 -1297 337z m376 -873 c508
-89 867 -540 836 -1050 -14 -219 -100 -432 -242 -595 -31 -36 -59 -66 -63 -68
-5 -1 -14 15 -21 35 -7 21 -35 83 -61 138 -250 518 -755 910 -1307 1015 -59
11 -125 24 -145 28 l-37 7 44 65 c218 320 618 491 996 425z m-952 -659 c465
-85 855 -331 1126 -711 97 -135 235 -415 222 -449 -7 -17 -158 -94 -239 -122
-74 -25 -218 -54 -268 -54 -25 0 -31 7 -55 68 -62 156 -193 337 -323 447 -516
434 -1278 343 -1679 -201 -285 -387 -296 -916 -28 -1320 62 -92 91 -110 142
-89 58 24 57 64 -3 152 -228 332 -244 737 -44 1086 37 66 149 208 168 215 5 1
14 -15 21 -35 27 -76 111 -240 171 -332 306 -469 780 -770 1332 -846 l48 -6
-17 -27 c-95 -150 -252 -295 -403 -372 -328 -166 -707 -142 -1021 66 -79 52
-117 57 -148 18 -28 -36 -26 -57 8 -96 32 -36 153 -112 245 -152 531 -234
1170 -22 1462 487 l38 67 64 0 c134 0 349 34 505 79 l68 20 -7 -32 c-15 -70
-78 -237 -126 -332 -352 -708 -1141 -1084 -1913 -914 -138 31 -258 74 -400
144 -341 169 -621 454 -785 798 -226 471 -226 1013 0 1484 254 532 767 899
1360 972 103 13 377 5 479 -13z m-11 -737 c248 -65 482 -253 612 -490 22 -41
40 -80 40 -87 0 -13 -4 -13 -113 14 -197 47 -406 188 -543 365 -46 60 -124
195 -124 217 0 14 9 12 128 -19z"/>
</g>
</svg>
