<svg xmlns="http://www.w3.org/2000/svg" xmlns:xlink="http://www.w3.org/1999/xlink" width="183" height="194.412" viewBox="0 0 183 194.412">
  <defs>
    <linearGradient id="linear-gradient" x1="0.5" x2="0.5" y2="1" gradientUnits="objectBoundingBox">
      <stop offset="0" stop-color="#ff6e2c"/>
      <stop offset="1" stop-color="#ffe32c"/>
    </linearGradient>
  </defs>
  <g id="anillo-de-compromiso" transform="translate(-15.063 511.975)">
    <path id="Trazado_113" data-name="Trazado 113" d="M118.916-511.529A72.455,72.455,0,0,0,73.8-488.171a81.436,81.436,0,0,0-10.9,16.218,88.446,88.446,0,0,0-5.469,15.42l-.608,2.849-2.925,1.519c-33.841,17.737-47.97,57.617-32.7,92.293a72.519,72.519,0,0,0,14.623,21.231,71.04,71.04,0,0,0,97.724,3.114,72.942,72.942,0,0,0,22.029-36.993,28.991,28.991,0,0,1,.836-3.3c.038-.076,1.481-.836,3.152-1.709a70.2,70.2,0,0,0,18.155-13.559,70.786,70.786,0,0,0,8.28-89.217c-5.089-7.6-6.571-8.774-8.925-6.95-1.557,1.215-1.329,2.659.874,5.431a65.642,65.642,0,0,1,11.014,61.947,77.21,77.21,0,0,1-8.622,16.9,84.784,84.784,0,0,1-15.648,15.648,65.482,65.482,0,0,1-54.806,9.761,66.479,66.479,0,0,1-43.944-39.234,13.265,13.265,0,0,1-1.025-3.418c.266-.646,6-3.57,9.077-4.634a47.716,47.716,0,0,1,10.179-2.051c.95,0,1.177.266,2.2,2.811a44.112,44.112,0,0,0,42.614,27.08,43.77,43.77,0,0,0,38.247-26.624,43.726,43.726,0,0,0-4.938-42.918A43.811,43.811,0,0,0,98.6-474.232,44.836,44.836,0,0,0,88.3-461.584l-.912,1.633H85a77.546,77.546,0,0,0-19.066,3,8.023,8.023,0,0,1-2.621.57,40.2,40.2,0,0,1,1.443-5.051,65.041,65.041,0,0,1,55.186-44.437,65.94,65.94,0,0,1,48.008,14.053c2.773,2.2,4.216,2.431,5.431.874,1.747-2.2.874-3.494-5.2-7.786A71.524,71.524,0,0,0,118.916-511.529ZM133.2-478.372a38.217,38.217,0,0,1,31.752,39.88,38.393,38.393,0,0,1-9.191,22.6,28.95,28.95,0,0,1-2.393,2.583c-.19.038-.532-.57-.8-1.329-.266-.8-1.329-3.152-2.317-5.241-9.5-19.674-28.675-34.562-49.641-38.55-2.241-.418-4.748-.912-5.507-1.064l-1.405-.266,1.671-2.469A38.507,38.507,0,0,1,133.2-478.372ZM97.039-453.343a66.113,66.113,0,0,1,42.766,27c3.684,5.127,8.925,15.762,8.432,17.053-.266.646-6,3.57-9.077,4.634a47.724,47.724,0,0,1-10.179,2.051c-.95,0-1.177-.266-2.089-2.583a47.507,47.507,0,0,0-12.268-16.977,43.775,43.775,0,0,0-63.77,7.634,43.83,43.83,0,0,0-1.063,50.135c2.355,3.494,3.456,4.178,5.393,3.38,2.2-.912,2.165-2.431-.114-5.773A37.967,37.967,0,0,1,53.4-408.032c1.405-2.507,5.659-7.9,6.381-8.166.19-.038.532.57.8,1.329a80.094,80.094,0,0,0,6.495,12.61,71.293,71.293,0,0,0,50.59,32.132l1.823.228-.646,1.026a42.209,42.209,0,0,1-15.306,14.129,38.086,38.086,0,0,1-38.778-2.507c-3-1.975-4.444-2.165-5.621-.684-1.063,1.367-.987,2.165.3,3.646,1.215,1.367,5.811,4.254,9.305,5.773,20.168,8.888,44.437.836,55.528-18.5l1.443-2.545h2.431a80.707,80.707,0,0,0,19.18-3l2.583-.76-.266,1.215a72.382,72.382,0,0,1-4.786,12.61A65.4,65.4,0,0,1,72.2-324.778a64.941,64.941,0,0,1-15.192-5.469,65.507,65.507,0,0,1-29.815-30.309,64.9,64.9,0,0,1,0-56.363,66.069,66.069,0,0,1,51.654-36.917A93.943,93.943,0,0,1,97.039-453.343Zm-.418,27.992c9.419,2.469,18.307,9.609,23.244,18.611a18.135,18.135,0,0,1,1.519,3.3c0,.494-.152.494-4.292-.532-7.482-1.785-15.42-7.14-20.624-13.863-1.747-2.279-4.71-7.406-4.71-8.242C91.76-426.6,92.1-426.528,96.621-425.351Z" transform="translate(0 0)" fill="url(#linear-gradient)"/>
  </g>
</svg>
