<?xml version="1.0" standalone="no"?>
<!DOCTYPE svg PUBLIC "-//W3C//DTD SVG 20010904//EN"
 "http://www.w3.org/TR/2001/REC-SVG-20010904/DTD/svg10.dtd">
<svg version="1.0" xmlns="http://www.w3.org/2000/svg"
 width="512.000000pt" height="512.000000pt" viewBox="0 0 512.000000 512.000000"
 preserveAspectRatio="xMidYMid meet">

<g transform="translate(0.000000,512.000000) scale(0.100000,-0.100000)"
fill="#C2C2C2" stroke="none">
<path d="M2415 5113 c-378 -45 -698 -201 -950 -464 -208 -217 -343 -480 -402
-784 -24 -125 -24 -406 0 -530 62 -314 191 -566 406 -789 489 -507 1265 -612
1866 -251 382 229 634 593 722 1040 24 125 24 405 0 530 -68 342 -214 608
-463 844 -283 267 -661 415 -1049 410 -55 -1 -113 -4 -130 -6z m403 -178 c411
-80 770 -353 960 -731 43 -86 98 -249 119 -352 24 -120 24 -384 0 -504 -73
-368 -292 -692 -602 -890 -142 -92 -315 -161 -483 -195 -124 -25 -385 -24
-507 1 -774 160 -1251 907 -1064 1665 133 538 589 944 1149 1021 92 13 330 4
428 -15z"/>
<path d="M2420 4874 c-208 -27 -407 -101 -580 -217 -96 -64 -273 -241 -337
-337 -95 -142 -163 -302 -199 -470 -26 -119 -26 -381 0 -500 55 -257 169 -466
355 -651 185 -186 394 -300 651 -355 119 -26 381 -26 500 0 257 55 466 169
651 355 186 185 300 394 355 651 26 119 26 381 0 500 -55 257 -169 466 -355
651 -182 182 -382 293 -631 350 -83 19 -331 33 -410 23z m310 -169 c235 -35
449 -144 620 -315 340 -340 425 -845 216 -1275 -340 -699 -1251 -850 -1801
-300 -250 250 -367 612 -310 960 57 352 277 655 594 819 213 110 443 148 681
111z"/>
<path d="M2505 4375 l-25 -24 0 -393 0 -392 272 -272 c157 -159 282 -275 296
-279 57 -14 111 40 97 97 -4 14 -114 132 -256 274 l-249 249 0 358 0 358 -25
24 c-15 16 -36 25 -55 25 -19 0 -40 -9 -55 -25z"/>
<path d="M512 1823 c-29 -25 -512 -877 -512 -903 0 -29 496 -897 520 -910 25
-13 1494 -14 1519 0 10 5 87 131 172 279 l154 271 195 0 195 0 153 -270 c85
-149 162 -275 172 -280 12 -6 289 -10 763 -10 695 0 746 1 765 18 28 24 512
878 512 903 0 28 -497 897 -520 909 -12 6 -288 10 -765 10 l-746 0 -22 -23
c-12 -12 -87 -138 -167 -279 l-145 -257 -195 -1 -195 0 -153 270 c-85 149
-162 275 -172 280 -12 6 -289 10 -763 10 -695 0 -746 -1 -765 -17z m1180 -523
l217 -380 -217 -380 -217 -379 -435 0 -435 -1 -217 380 -217 380 217 380 217
380 435 0 435 0 217 -380z m438 73 c96 -169 183 -322 193 -340 l17 -33 -147 0
-148 0 -160 282 c-88 155 -175 308 -193 340 l-33 58 148 0 148 0 175 -307z
m2122 -73 l217 -380 -217 -380 -217 -379 -435 0 -435 0 -112 197 -112 197 372
5 372 5 60 28 c78 36 146 104 182 181 24 52 28 74 28 146 0 72 -4 94 -28 145
-42 90 -115 159 -207 196 -27 10 -123 15 -407 19 l-373 5 113 197 112 198 435
0 435 0 217 -380z m438 73 c96 -169 183 -322 193 -340 l17 -33 -147 0 -148 0
-160 282 c-88 155 -175 308 -193 340 l-33 58 148 0 148 0 175 -307z m-983
-285 c75 -49 107 -138 84 -226 -15 -55 -76 -117 -129 -132 -27 -7 -235 -9
-621 -8 l-581 3 50 87 c55 96 59 118 32 163 -10 17 -33 56 -51 88 l-33 58 604
-3 604 -3 41 -27z m-1399 -307 c-18 -32 -105 -185 -193 -339 l-160 -281 -148
-1 -149 0 39 68 c21 38 108 191 193 340 l155 272 148 0 149 0 -34 -59z m2560
0 c-18 -32 -105 -185 -193 -339 l-160 -281 -148 -1 -149 0 39 68 c21 38 108
191 193 340 l155 272 148 0 149 0 -34 -59z"/>
</g>
</svg>
