<svg xmlns="http://www.w3.org/2000/svg" xmlns:xlink="http://www.w3.org/1999/xlink" width="196.873" height="196.844" viewBox="0 0 196.873 196.844">
  <defs>
    <linearGradient id="linear-gradient" x1="0.5" x2="0.5" y2="1" gradientUnits="objectBoundingBox">
      <stop offset="0" stop-color="#ff6e2c"/>
      <stop offset="1" stop-color="#ffe32c"/>
    </linearGradient>
  </defs>
  <g id="discipline" transform="translate(0 511.912)">
    <path id="Trazado_124" data-name="Trazado 124" d="M157.179-511.677c-14.535,1.73-26.839,7.729-36.529,17.842a58.99,58.99,0,0,0-15.458,30.146,75.354,75.354,0,0,0,0,20.379A58.073,58.073,0,0,0,120.8-412.971a58.226,58.226,0,0,0,71.751,9.651c14.689-8.805,24.378-22.8,27.762-39.99a75.354,75.354,0,0,0,0-20.379,58.16,58.16,0,0,0-17.8-32.453,57.866,57.866,0,0,0-40.336-15.765C160.063-511.869,157.833-511.754,157.179-511.677Zm15.5,6.844a52.978,52.978,0,0,1,36.914,28.108,67.491,67.491,0,0,1,4.576,13.535,68.176,68.176,0,0,1,0,19.38,52.854,52.854,0,0,1-23.148,34.222,55.207,55.207,0,0,1-18.572,7.5,66.247,66.247,0,0,1-19.5-.038c-29.762-6.152-48.1-34.876-40.913-64.022a52.73,52.73,0,0,1,44.181-39.259A74.218,74.218,0,0,1,172.675-504.832Z" transform="translate(-64.318 0)" fill="url(#linear-gradient)"/>
    <path id="Trazado_125" data-name="Trazado 125" d="M172.112-487.6a52.093,52.093,0,0,0-22.3,8.344A64.657,64.657,0,0,0,136.852-466.3,52.257,52.257,0,0,0,129.2-448.23c-1,4.576-1,14.65,0,19.226a48.223,48.223,0,0,0,13.65,25.032,48.223,48.223,0,0,0,25.032,13.65c4.576,1,14.65,1,19.226,0a48.223,48.223,0,0,0,25.032-13.65A48.223,48.223,0,0,0,225.79-429c1-4.576,1-14.65,0-19.226a48.222,48.222,0,0,0-13.65-25.032,48.082,48.082,0,0,0-24.263-13.458A75.431,75.431,0,0,0,172.112-487.6Zm11.92,6.5a42.342,42.342,0,0,1,23.84,12.112,42.539,42.539,0,0,1,8.306,49.026,42.867,42.867,0,0,1-69.252,11.535,42.8,42.8,0,0,1-11.92-36.914,43.2,43.2,0,0,1,22.84-31.492A42,42,0,0,1,184.032-481.106Z" transform="translate(-79.059 -14.882)" fill="url(#linear-gradient)"/>
    <path id="Trazado_126" data-name="Trazado 126" d="M248.961-439.039l-.961.923v30.185l10.459,10.459c6.037,6.114,10.843,10.574,11.382,10.728a3.126,3.126,0,0,0,3.73-3.73c-.154-.538-4.383-5.076-9.844-10.536l-9.574-9.574v-27.531l-.961-.923a3,3,0,0,0-2.115-.961A3,3,0,0,0,248.961-439.039Z" transform="translate(-152.64 -44.261)" fill="url(#linear-gradient)"/>
    <path id="Trazado_127" data-name="Trazado 127" d="M19.687-183.346C18.572-182.385,0-149.624,0-148.624c0,1.115,19.072,34.491,19.995,34.991.961.5,57.447.538,58.408,0,.385-.192,3.345-5.037,6.614-10.728l5.922-10.42h15l5.883,10.382c3.268,5.729,6.229,10.574,6.614,10.766.461.231,11.113.385,29.339.385,26.724,0,28.685-.038,29.416-.692,1.077-.923,19.687-33.761,19.687-34.722,0-1.077-19.11-34.491-19.995-34.953-.461-.231-11.074-.385-29.416-.385H118.777l-.846.884c-.461.461-3.345,5.306-6.421,10.728l-5.575,9.882-7.5.038h-7.5l-5.883-10.382c-3.268-5.729-6.229-10.574-6.614-10.766C77.98-183.846,67.329-184,49.1-184,22.379-184,20.418-183.962,19.687-183.346Zm45.373,20.11L73.4-148.624,65.06-134.013,56.716-119.44H39.99l-16.726.038-8.344-14.612L6.575-148.624l8.344-14.612,8.344-14.612H56.716ZM81.9-166.043c3.691,6.5,7.037,12.381,7.421,13.074l.654,1.269H78.634l-6.152-10.843c-3.384-5.96-6.729-11.843-7.421-13.074l-1.269-2.23H75.173Zm81.595,2.807,8.344,14.612L163.5-134.013l-8.344,14.573H121.7l-4.307-7.575-4.307-7.575,14.3-.192,14.3-.192L144-136.051a14.812,14.812,0,0,0,7-6.96,10.5,10.5,0,0,0,1.077-5.614A10.281,10.281,0,0,0,151-154.2a14.821,14.821,0,0,0-7.96-7.537c-1.038-.385-4.73-.577-15.65-.731l-14.342-.192,4.345-7.575,4.307-7.613h33.453Zm16.842-2.807c3.691,6.5,7.037,12.381,7.421,13.074l.654,1.269H177.07l-6.152-10.843c-3.384-5.96-6.729-11.843-7.421-13.074l-1.269-2.23h11.382Zm-37.8,10.959a7.826,7.826,0,0,1,3.23,8.69,8.316,8.316,0,0,1-4.96,5.076c-1.038.269-9.036.346-23.879.308l-22.34-.115,1.923-3.345c2.115-3.691,2.269-4.537,1.23-6.268-.385-.654-1.269-2.153-1.961-3.384l-1.269-2.23,23.225.115,23.225.115Zm-53.794,11.8c-.692,1.23-4.037,7.114-7.421,13.035l-6.152,10.8-5.691.038H63.753l1.5-2.615c.807-1.461,4.153-7.344,7.421-13.074l5.96-10.459h11.42Zm98.436,0c-.692,1.23-4.037,7.114-7.421,13.035l-6.152,10.8-5.691.038h-5.729l1.5-2.615c.807-1.461,4.153-7.344,7.421-13.074l5.96-10.459h11.42Z" transform="translate(0 -201.824)" fill="url(#linear-gradient)"/>
  </g>
</svg>
