<svg xmlns="http://www.w3.org/2000/svg" xmlns:xlink="http://www.w3.org/1999/xlink" width="193.756" height="193.429" viewBox="0 0 193.756 193.429">
  <defs>
    <linearGradient id="linear-gradient" x1="0.5" x2="0.5" y2="1" gradientUnits="objectBoundingBox">
      <stop offset="0" stop-color="#ff6e2c"/>
      <stop offset="1" stop-color="#ffe32c"/>
    </linearGradient>
  </defs>
  <g id="libro" transform="translate(-4 507.85)">
    <path id="Trazado_114" data-name="Trazado 114" d="M248.9-507.331c-2.806,1.538-2.345,8.3.615,9.15a3.993,3.993,0,0,0,2.23-.077c2.768-1.076,2.96-7.689.231-9.073A2.537,2.537,0,0,0,248.9-507.331Z" transform="translate(-149.598 0)" fill="url(#linear-gradient)"/>
    <path id="Trazado_115" data-name="Trazado 115" d="M166.961-499.012a3.065,3.065,0,0,0-.961,2.037c0,1.038,2.576,7.766,4.075,10.726a3.147,3.147,0,0,0,5.8-.115c.615-1.23.577-1.346-1.576-6.651a33.866,33.866,0,0,0-3.075-6.151A3.067,3.067,0,0,0,166.961-499.012Z" transform="translate(-99.721 -4.859)" fill="url(#linear-gradient)"/>
    <path id="Trazado_116" data-name="Trazado 116" d="M324.565-499.167c-.615.461-1.73,2.653-3.191,6.113-2.076,5.036-2.191,5.5-1.73,6.612a3.342,3.342,0,0,0,4.152,1.922c1.307-.538,1.692-1.269,4.113-7.112,2.037-4.882,2.114-6.036.73-7.343A2.941,2.941,0,0,0,324.565-499.167Z" transform="translate(-194.162 -4.896)" fill="url(#linear-gradient)"/>
    <path id="Trazado_117" data-name="Trazado 117" d="M102.676-448.13a2.583,2.583,0,0,0-1.076,2.307c0,1.23.346,1.73,2.576,3.96s2.729,2.576,3.96,2.576a3.316,3.316,0,0,0,3.229-3.306c0-.961-.5-1.73-2.614-3.844C105.752-449.4,104.522-449.745,102.676-448.13Z" transform="translate(-60.079 -36.173)" fill="url(#linear-gradient)"/>
    <path id="Trazado_118" data-name="Trazado 118" d="M387.614-446.386C385.5-444.271,385-443.5,385-442.542a3.316,3.316,0,0,0,3.229,3.306c1.23,0,1.73-.346,3.96-2.576s2.576-2.729,2.576-3.96A3.316,3.316,0,0,0,391.459-449C390.5-449,389.729-448.5,387.614-446.386Z" transform="translate(-234.53 -36.226)" fill="url(#linear-gradient)"/>
    <path id="Trazado_119" data-name="Trazado 119" d="M82.925-438.142a20.7,20.7,0,0,0-8.688,5.19l-2.23,2.114-4.5.038c-4.306,0-4.613.038-7.189,1.307a16.683,16.683,0,0,0-9.111,11.61c-.384,1.884-.615,2.268-1.768,2.883a14.3,14.3,0,0,0-6.42,8.611,22.942,22.942,0,0,0-.269,3.652c.038,1.922-.192,2.768-1.5,5.382a26.479,26.479,0,0,0-2.114,16.915c.615,2.5.461,2.845-1.307,2.883a7.821,7.821,0,0,0-4.921,2.576,11.57,11.57,0,0,0-1.307,3.421l-.5,2.268-4.421.192c-4.921.231-5.882.615-7.3,2.883C18.378-364.638,4-291.326,4-287.981a9.616,9.616,0,0,0,5.767,8.611c1.73.807,2.114.807,37.021.923l35.291.077,1.384,1.422c3.152,3.114,9.3,4.844,17.415,4.844,7.919,0,13.455-1.5,16.838-4.536l1.884-1.73,35.33-.077c34.945-.115,35.33-.115,37.06-.923a9.616,9.616,0,0,0,5.767-8.611c0-3.306-14.416-76.657-15.377-78.233-1.422-2.268-2.422-2.653-7.3-2.883l-4.421-.192-.5-2.268a11.57,11.57,0,0,0-1.307-3.421,7.735,7.735,0,0,0-5-2.576h-1l.192-2.845a20.279,20.279,0,0,0-1.653-9.8c-.923-2-.923-2.307-.5-4.575a13.107,13.107,0,0,0-2.96-11.11,14.564,14.564,0,0,0-6.343-4.152c-.884-.192-1.115-.577-1.692-2.768-3.037-11.149-13.686-19.76-24.988-20.144-2.191-.115-2.345-.154-4.229-2.076a11.866,11.866,0,0,0-8.65-3.96,11.857,11.857,0,0,0-8.112,1.961l-2.153,1.307-2.153-1.115A23.423,23.423,0,0,0,82.925-438.142ZM96-431.261l2.268,1.038-.269,1.576c-.538,3.037-.346,4.306.769,5.228a3.158,3.158,0,0,0,4.152.115c.692-.577,1.076-1.346,1.346-3.075.5-2.806,1.538-4.383,3.537-5.382,4.536-2.307,9.457.5,10.149,5.8.423,3.075,3.114,4.421,5.382,2.614a2.406,2.406,0,0,0,1-1.922c0-.961.154-1.115,1.076-1.115a13.535,13.535,0,0,1,2.96.538,21.485,21.485,0,0,1,14.609,13.071l.961,2.537-2.191,1.038c-3.46,1.692-4.344,4-2.345,6.151,1.076,1.153,2.422,1.115,5.113-.115a6.44,6.44,0,0,1,3.883-.807,6.836,6.836,0,0,1,6.113,6.8c0,2.345-1.115,4.306-3.46,6.074-1.653,1.23-1.922,1.653-2.038,2.922-.269,2.96,2.691,4.267,5.536,2.5,1.269-.769,1.307-.769,1.615-.077a19.576,19.576,0,0,1,.269,3.96,10.279,10.279,0,0,1-1.076,5.574,14.2,14.2,0,0,1-11.8,8.189,14.648,14.648,0,0,1-7.919-1.73l-.884-.577.807-1.576a12.822,12.822,0,0,0,.538-8.534c-1.269-3.268-3.652-4.152-5.69-2.114-.961,1-1.115,1.384-.923,2.422.73,3.767.692,4.652-.231,6.036a4.432,4.432,0,0,1-5.613,1.691,5.292,5.292,0,0,1-2.5-1.922,4.081,4.081,0,0,0-3.383-2.076c-1.076,0-3.037,2.038-3.037,3.152,0,1.384,2.038,4.344,3.883,5.69a10.809,10.809,0,0,0,8.381,2c2.422-.423,2.5-.384,4.152.769a18.464,18.464,0,0,0,10.3,3.306,25.03,25.03,0,0,0,5.305-.231c.769-.231,1.422-.269,1.422-.077a14.568,14.568,0,0,1-2.345,2.46,21.093,21.093,0,0,1-9.265,5.075c-3.767,1.038-5,2.537-4,4.921.846,2.038,2.268,2.383,5.843,1.384a12.808,12.808,0,0,1,3.421-.615c.654.231,2.5,4.959,2.5,6.343,0,2.307-2.729,4.113-4.69,3.075a17.905,17.905,0,0,1-3-2.46c-2.614-2.46-4.613-3.614-9.073-5.344-4.959-1.884-7.035-3-8.765-4.805l-1.5-1.538,1.115-.231c3.46-.769,5.19-1.422,5.728-2.191a3.31,3.31,0,0,0-.038-3.691c-1-1.461-2.23-1.691-4.882-1a30.248,30.248,0,0,1-12.187,0c-1.153-.346-2.845-.73-3.729-.884-1.5-.192-1.73-.077-3.652,1.576a22.833,22.833,0,0,1-4.152,2.845c-1.845.884-2.576,1-5.767,1-3.229,0-3.921-.115-5.92-1.076a14.154,14.154,0,0,1-6.535-19.145,8.888,8.888,0,0,0,.923-2.614c0-1.23-2.038-3.076-3.345-3.076-1.653,0-2.576.846-3.729,3.422a6.335,6.335,0,0,1-1.422,2.345c-1.653,0-4.19-2.73-4.19-4.536a3.3,3.3,0,0,0-5.574-2.576c-1.153,1.153-1.269,3.345-.308,6.189A12.624,12.624,0,0,0,66.7-370.1c2.23.692,2.653,1.153,2.653,3.191,0,.769-.192.884-1.807.961-5.036.192-8.112-.384-11.764-2.307-8.65-4.5-12.955-15.57-9.457-24.373l.423-1.076,1.384,1.153c1.768,1.461,3.575,1.538,4.882.192,1.576-1.538,1.307-3.229-.807-5.267a13.926,13.926,0,0,1-2.307-2.691,9.033,9.033,0,0,1,0-6.036,7.539,7.539,0,0,1,5-3.691c2.537-.384,4,.077,6.074,2.038,2.345,2.191,4.075,2.422,5.536.692,1.422-1.615,1.192-3-.692-5.113-1.692-1.807-5.536-3.96-7.112-3.96-1.269,0-1.153-1.384.231-3.5a9.992,9.992,0,0,1,7.958-4.575H68.2l-.231,2.076c-.231,1.884-.154,2.191.73,3.075a2.947,2.947,0,0,0,4.536-.115,3.789,3.789,0,0,0,1.115-1.768c0-1,1.845-4.344,3.345-6a17.578,17.578,0,0,1,6.766-4.613A18.256,18.256,0,0,1,96-431.261ZM47.71-365.868a27.559,27.559,0,0,0,10.88,5.8,33.706,33.706,0,0,0,10.995.461l1.922-.269,1.269,1.884a21.343,21.343,0,0,0,12.61,8.5,25.07,25.07,0,0,0,11.379-.769,23.983,23.983,0,0,0,4.652-2.5l2.384-1.615,2.5.5a21.771,21.771,0,0,0,3.345.538,1.308,1.308,0,0,1,1.115.653c1.768,5.267,6.151,8.881,14.263,11.8,4,1.422,5,2,7.573,4.459,2.653,2.537,4.652,3.652,7.189,4.037,3.729.577,8.15-1.807,10.034-5.344.654-1.23.846-2.23.846-4.652a11.9,11.9,0,0,0-1.422-6.343l-1.461-3.268,3.191-3.268a28.519,28.519,0,0,0,6.92-11.379,15.227,15.227,0,0,1,1.5-3.383c.884-1.384,1.461-1.576,3.345-1.038.961.269,1,.615,6.8,35.6,3.229,19.452,5.8,35.407,5.728,35.483a18.915,18.915,0,0,1-3.152-.807,112.387,112.387,0,0,0-25.834-4.536,112.438,112.438,0,0,0-39.213,4.69c-1.346.384-2.5.73-2.576.73s-.154-9.226-.154-20.49c0-18.684-.077-20.567-.692-21.8a2.965,2.965,0,0,0-5.536,0c-.615,1.23-.692,3.114-.692,21.874,0,19.376-.038,20.49-.654,20.221-.384-.115-3.268-.923-6.459-1.73a111.35,111.35,0,0,0-53.244-.923c-2.422.538-5.767,1.422-7.42,1.961a18.915,18.915,0,0,1-3.152.807c-.192-.192,11.495-70.544,11.764-70.813a9.156,9.156,0,0,1,2.307-.5l2.076-.308,1.807,2.268A29.3,29.3,0,0,0,47.71-365.868Zm-17.761,4.152c-.115.5-2.46,14.455-5.228,31.062-3.191,19.106-4.959,30.793-4.844,31.793a6.635,6.635,0,0,0,3.575,4.959c1.845.769,3.806.654,7.42-.423a143.1,143.1,0,0,1,16.185-3.537c6.382-1,23.643-.961,30.178.038a30.78,30.78,0,0,1,4.882.961,31.624,31.624,0,0,1-.192,6l-.461,5.767H12.534l-1-.923a2.9,2.9,0,0,1-1-2.114c0-.654,3.191-17.607,7.112-37.675,3.921-20.106,7.112-36.56,7.112-36.637a14.533,14.533,0,0,1,2.691-.115C30.065-362.562,30.142-362.524,29.949-361.716Zm147.393,1.153c3.345,16.454,13.878,71.505,13.878,72.389a2.911,2.911,0,0,1-1,2.153l-1,.923H120.292l-.461-5.767a32.032,32.032,0,0,1-.192-6.036,36.628,36.628,0,0,1,4.882-.961c6.535-.961,23.835-.961,30.178,0a138.576,138.576,0,0,1,16.185,3.537,21.844,21.844,0,0,0,4.69.961,6.325,6.325,0,0,0,6.3-5.5c.115-1-1.653-12.686-4.844-31.793-2.768-16.608-5.113-30.563-5.228-31.062-.192-.807-.115-.846,2.46-.846h2.691ZM92.228-294.555c1.269.423,3.5,1.192,4.959,1.73,3.345,1.269,4.19,1.269,7.612-.115,3.421-1.345,7.573-2.537,7.842-2.23a63.236,63.236,0,0,1,.769,6.612c.654,7.535.73,7.343-3.076,8.65a33.677,33.677,0,0,1-18.914,0c-3.691-1.269-3.729-1.346-3.229-7.151.577-7.035.769-8.227,1.269-8.227A21.621,21.621,0,0,1,92.228-294.555Z" transform="translate(0 -42.317)" fill="url(#linear-gradient)"/>
    <path id="Trazado_120" data-name="Trazado 120" d="M200.3-370.37a15.516,15.516,0,0,0-10.5,12.417c-.384,2.845.115,4.229,1.768,4.921,2.422,1,4.075-.346,4.729-3.844a13.544,13.544,0,0,1,1.115-3.46,8.768,8.768,0,0,1,5.728-3.883c2.653-.384,3.114-.538,3.96-1.461a3.157,3.157,0,0,0-.192-4.306c-.769-.807-1.307-.961-2.96-.923A13.49,13.49,0,0,0,200.3-370.37Z" transform="translate(-114.298 -84.293)" fill="url(#linear-gradient)"/>
    <path id="Trazado_121" data-name="Trazado 121" d="M254.684-336.391a5.257,5.257,0,0,0-1.422,2.46,13.218,13.218,0,0,1-7.343,8.919,9.7,9.7,0,0,1-5.267,1.115,12.855,12.855,0,0,1-9.111-3.268c-2.422-2.076-4.113-2.307-5.613-.769-1.538,1.5-1.269,2.96.807,5.228,1.807,1.884,7.112,4.959,8.65,4.959,1,0,.923.461-.308,1.653a11.177,11.177,0,0,1-5.882,2.576c-3.076,0-4.921,2.537-3.691,4.921.73,1.384,1.269,1.615,3.844,1.615a16.091,16.091,0,0,0,7.766-2.422,18.146,18.146,0,0,0,5.574-6.151c.769-1.538,1-1.692,3.652-2.537a20.657,20.657,0,0,0,9.419-6.42c2.768-3.729,4.536-8.419,3.844-10.264A3.315,3.315,0,0,0,254.684-336.391Z" transform="translate(-136.007 -105.201)" fill="url(#linear-gradient)"/>
    <path id="Trazado_122" data-name="Trazado 122" d="M52.462-384.108a3.128,3.128,0,0,0-1.538,4.229c.461,1.153,1.038,1.461,5.8,3.421a33.712,33.712,0,0,0,6.42,2.191,3.261,3.261,0,0,0,3-3.037c0-1.884-1.384-2.96-6.343-5C53.846-384.685,53.884-384.685,52.462-384.108Z" transform="translate(-28.702 -75.975)" fill="url(#linear-gradient)"/>
    <path id="Trazado_123" data-name="Trazado 123" d="M429.073-383.308c-2.23.923-4.652,1.922-5.421,2.23a3.871,3.871,0,0,0-2.653,3.5,3.285,3.285,0,0,0,3,2.96c1.076,0,9.534-3.268,11.226-4.306a3.233,3.233,0,0,0-.615-5.536,12.831,12.831,0,0,0-1.384-.538C433.148-385,431.3-384.231,429.073-383.308Z" transform="translate(-256.69 -75.622)" fill="url(#linear-gradient)"/>
  </g>
</svg>
