<?xml version="1.0" standalone="no"?>
<!DOCTYPE svg PUBLIC "-//W3C//DTD SVG 20010904//EN"
 "http://www.w3.org/TR/2001/REC-SVG-20010904/DTD/svg10.dtd">
<svg version="1.0" xmlns="http://www.w3.org/2000/svg"
 width="512.000000pt" height="512.000000pt" viewBox="0 0 512.000000 512.000000"
 preserveAspectRatio="xMidYMid meet">

<g transform="translate(0.000000,512.000000) scale(0.100000,-0.100000)"
fill="#C2C2C2" stroke="none">
<path d="M2855 4849 c-56 -7 -75 -14 -92 -35 -28 -31 -29 -64 -4 -95 18 -22
25 -24 88 -19 124 9 367 4 437 -9 64 -11 72 -11 95 7 30 22 39 77 18 106 -8
11 -39 24 -78 33 -79 17 -370 25 -464 12z"/>
<path d="M2015 4472 c-37 -23 -154 -147 -216 -227 -480 -628 -422 -1510 137
-2069 72 -72 91 -86 118 -86 40 0 76 35 76 74 0 21 -24 52 -102 134 -269 282
-402 611 -401 992 0 270 62 494 198 725 62 105 158 226 244 309 66 63 77 95
44 134 -26 31 -63 36 -98 14z"/>
<path d="M3995 4455 c-43 -42 -34 -66 70 -176 52 -56 121 -140 153 -187 389
-569 319 -1315 -170 -1814 -77 -79 -88 -101 -72 -143 10 -26 63 -45 94 -33 32
12 94 72 174 168 162 194 267 398 326 635 133 527 -17 1087 -395 1473 -111
113 -135 123 -180 77z"/>
<path d="M3465 4346 c-46 -21 -66 -48 -161 -224 -49 -90 -103 -180 -121 -200
l-32 -37 -1 32 c0 66 -22 137 -50 165 -23 22 -38 28 -72 28 -39 0 -57 -11
-208 -121 -186 -136 -222 -169 -287 -254 -197 -261 -225 -612 -72 -906 66
-127 135 -199 332 -348 l177 -133 0 -128 0 -128 -38 -15 c-21 -8 -199 -103
-396 -211 -196 -108 -365 -196 -375 -196 -10 0 -35 14 -56 30 -46 36 -143 84
-205 101 -31 8 -201 13 -559 16 l-514 4 -32 35 c-59 63 -69 64 -429 64 l-325
0 -20 -26 c-28 -35 -26 -69 4 -99 l24 -25 308 0 c169 0 313 -4 320 -8 24 -15
33 -66 33 -187 0 -117 1 -125 22 -139 30 -21 71 -20 99 3 21 17 24 28 27 125
l4 106 447 0 c245 0 474 -4 508 -9 77 -11 159 -48 220 -98 l46 -38 513 -5 512
-5 39 -31 c46 -36 83 -105 83 -154 -1 -70 -59 -155 -123 -179 -18 -7 -168 -11
-420 -11 -216 0 -410 -5 -432 -10 -31 -7 -59 -28 -127 -98 -97 -99 -107 -124
-63 -167 41 -42 68 -34 154 50 l77 74 419 3 c420 3 420 3 465 27 25 13 52 29
60 36 17 15 17 15 515 190 198 70 512 180 698 246 187 65 353 119 371 119 73
0 146 -75 146 -150 0 -19 -11 -53 -23 -75 -22 -38 -54 -56 -692 -388 -955
-495 -1077 -555 -1160 -572 -38 -8 -121 -15 -183 -15 -106 0 -114 -1 -137 -25
-34 -33 -33 -77 1 -104 51 -40 306 -25 456 28 52 18 277 133 1387 709 200 104
381 203 402 220 93 79 123 238 66 354 -48 97 -136 157 -244 166 -55 4 -78 -1
-207 -44 l-145 -48 -23 20 c-154 139 -293 254 -356 295 -209 137 -420 199
-675 199 -117 0 -157 -4 -284 -27 l-33 -6 0 104 1 104 256 265 c141 146 262
279 269 297 24 55 -9 103 -70 103 -19 0 -44 -19 -93 -72 -120 -129 -393 -407
-400 -408 -11 -2 -184 562 -190 621 -3 32 0 86 6 121 23 114 60 174 204 328
209 225 228 250 326 430 51 94 94 170 96 170 10 0 91 -130 121 -194 98 -214
116 -460 48 -692 -13 -46 -24 -92 -24 -102 0 -28 42 -62 77 -62 38 0 58 22 83
95 73 214 72 489 -5 714 -42 125 -137 293 -196 348 -47 43 -108 54 -164 29z
m-475 -590 c-10 -53 -19 -68 -75 -128 -102 -111 -159 -238 -171 -387 -8 -100
3 -153 87 -420 38 -123 69 -225 67 -226 -7 -7 -154 110 -201 159 -174 182
-232 473 -141 713 56 150 139 247 324 380 l115 83 3 -58 c2 -31 -2 -84 -8
-116z m648 -1742 c143 -26 289 -86 412 -172 110 -76 292 -242 266 -242 -4 0
-893 -312 -929 -326 -9 -3 -11 9 -9 41 3 27 -5 73 -18 116 -18 61 -30 80 -83
134 -101 102 -116 105 -474 105 -191 0 -294 3 -287 10 25 25 477 263 548 289
187 67 367 81 574 45z"/>
<path d="M737 1230 l-26 -21 -3 -330 -3 -331 -24 -19 c-22 -18 -43 -19 -331
-19 l-309 0 -20 -26 c-26 -33 -27 -65 -2 -95 l19 -24 307 -3 c364 -3 389 1
453 73 l40 45 77 0 c75 0 78 -1 133 -44 110 -85 219 -134 360 -162 58 -11 183
-14 598 -14 l525 0 24 25 c14 13 25 36 25 50 0 14 -11 37 -25 50 l-24 25 -523
0 c-589 0 -607 2 -745 70 -45 22 -112 65 -149 95 l-67 55 -93 0 -93 0 -3 286
-3 286 -28 24 c-34 29 -56 30 -90 4z"/>
</g>
</svg>
