<svg xmlns="http://www.w3.org/2000/svg" xmlns:xlink="http://www.w3.org/1999/xlink" width="217.987" height="195.916" viewBox="0 0 217.987 195.916">
  <defs>
    <linearGradient id="linear-gradient" x1="0.5" x2="0.5" y2="1" gradientUnits="objectBoundingBox">
      <stop offset="0" stop-color="#ff6e2c"/>
      <stop offset="1" stop-color="#ffd22c"/>
    </linearGradient>
  </defs>
  <g id="responsibility" transform="translate(-0.086 485.545)">
    <path id="Trazado_128" data-name="Trazado 128" d="M278.963-485.27c-2.387.3-3.2.6-3.921,1.492a2.848,2.848,0,0,0-.171,4.049c.767.938,1.065,1.023,3.75.81,5.284-.384,15.64-.17,18.624.384,2.727.469,3.068.469,4.049-.3a3.6,3.6,0,0,0,.767-4.517,7,7,0,0,0-3.324-1.406C295.37-485.483,282.969-485.824,278.963-485.27Z" transform="translate(-157.243)" fill="url(#linear-gradient)"/>
    <path id="Trazado_129" data-name="Trazado 129" d="M170.481-447.975c-1.577.98-6.563,6.265-9.205,9.674a66.976,66.976,0,0,0,5.838,88.174c3.068,3.068,3.878,3.665,5.029,3.665a3.308,3.308,0,0,0,3.239-3.154c0-.895-1.023-2.216-4.347-5.711-11.464-12.018-17.132-26.039-17.089-42.276a57.847,57.847,0,0,1,8.438-30.9,68.08,68.08,0,0,1,10.4-13.169c2.813-2.685,3.281-4.049,1.875-5.711A3.02,3.02,0,0,0,170.481-447.975Z" transform="translate(-84.559 -21.228)" fill="url(#linear-gradient)"/>
    <path id="Trazado_130" data-name="Trazado 130" d="M398.047-446.976c-1.833,1.79-1.449,2.813,2.983,7.5a84.555,84.555,0,0,1,6.52,7.969c16.578,24.249,13.595,56.041-7.245,77.307-3.282,3.367-3.75,4.3-3.068,6.094.426,1.108,2.685,1.918,4.006,1.406,1.364-.511,4.006-3.068,7.415-7.16a65.932,65.932,0,0,0,13.893-27.062,66.563,66.563,0,0,0-16.834-62.775C400.987-448.51,399.964-448.936,398.047-446.976Z" transform="translate(-227.743 -21.503)" fill="url(#linear-gradient)"/>
    <path id="Trazado_131" data-name="Trazado 131" d="M147.735-435.357c-1.96.895-2.813,2.046-6.861,9.546a75.272,75.272,0,0,1-5.157,8.523l-1.364,1.577-.043-1.364c0-2.813-.938-5.838-2.131-7.032a3.656,3.656,0,0,0-3.068-1.193c-1.662,0-2.429.469-8.864,5.157-7.927,5.8-9.461,7.2-12.231,10.825a36.19,36.19,0,0,0-3.068,38.611c2.813,5.412,5.753,8.481,14.149,14.831l7.543,5.668v10.91l-1.619.639c-.895.341-8.481,4.39-16.876,8.992-8.353,4.6-15.555,8.353-15.981,8.353a6.246,6.246,0,0,1-2.387-1.279,30.947,30.947,0,0,0-8.736-4.3c-1.321-.341-8.566-.554-23.823-.682l-21.905-.17-1.364-1.492c-2.514-2.685-2.941-2.727-18.283-2.727H1.816l-.852,1.108a2.862,2.862,0,0,0,.17,4.219l1.023,1.065H15.283c7.2,0,13.339.17,13.637.341,1.023.639,1.406,2.813,1.406,7.969,0,4.986.043,5.327.938,5.924a3.516,3.516,0,0,0,4.219-.128c.895-.724,1.023-1.193,1.151-5.327l.17-4.517h19.05c10.441,0,20.2.17,21.649.384a19.892,19.892,0,0,1,9.376,4.176l1.96,1.619,21.862.213,21.82.213,1.662,1.321a9.673,9.673,0,0,1,3.537,6.563,9.216,9.216,0,0,1-5.242,7.628c-.767.3-7.16.469-17.9.469-9.205,0-17.473.213-18.41.426-1.321.3-2.514,1.193-5.412,4.176-4.134,4.219-4.56,5.284-2.685,7.117,1.747,1.79,2.9,1.449,6.563-2.131l3.281-3.154,17.856-.128c17.9-.128,17.9-.128,19.817-1.151a18.651,18.651,0,0,0,2.557-1.534c.724-.639.724-.639,21.948-8.1,8.438-2.983,21.82-7.671,29.747-10.484,7.969-2.77,15.044-5.071,15.811-5.071,3.111,0,6.222,3.2,6.222,6.393a8.307,8.307,0,0,1-.98,3.2c-.938,1.619-2.3,2.387-29.491,16.535-40.7,21.1-45.9,23.652-49.435,24.377a47.863,47.863,0,0,1-7.8.639c-4.517,0-4.858.043-5.838,1.065a2.8,2.8,0,0,0,.043,4.432c2.173,1.7,13.041,1.065,19.433-1.193,2.216-.767,11.8-5.668,59.109-30.215,8.523-4.432,16.237-8.651,17.132-9.376,3.963-3.367,5.242-10.143,2.813-15.086a12.467,12.467,0,0,0-10.4-7.074c-2.344-.17-3.324.043-8.822,1.875l-6.179,2.046-.98-.852c-6.563-5.924-12.487-10.825-15.172-12.572a49.866,49.866,0,0,0-28.766-8.481,52.79,52.79,0,0,0-12.1,1.151l-1.406.256v-4.432l.043-4.432,10.91-11.293c6.009-6.222,11.166-11.89,11.464-12.657,1.023-2.344-.384-4.389-2.983-4.389-.81,0-1.875.81-3.963,3.068-5.114,5.5-16.748,17.345-17.047,17.388-.469.085-7.841-23.951-8.1-26.465a23.643,23.643,0,0,1,.256-5.157c.98-4.858,2.557-7.415,8.694-13.978,8.907-9.589,9.717-10.654,13.893-18.325,2.173-4.006,4.006-7.245,4.091-7.245.426,0,3.878,5.54,5.157,8.268a42.3,42.3,0,0,1,2.046,29.491,32.8,32.8,0,0,0-1.023,4.347c0,1.193,1.79,2.642,3.282,2.642,1.619,0,2.472-.938,3.537-4.049a49.5,49.5,0,0,0-.213-30.428c-1.79-5.327-5.838-12.487-8.353-14.831A6.3,6.3,0,0,0,147.735-435.357Zm-20.243,25.144c-.426,2.259-.81,2.9-3.2,5.455a26.814,26.814,0,0,0-7.287,16.493c-.341,4.262.128,6.52,3.708,17.9,1.619,5.242,2.941,9.589,2.855,9.631-.3.3-6.563-4.688-8.566-6.776A29.835,29.835,0,0,1,109-397.9c2.387-6.393,5.924-10.526,13.808-16.194l4.9-3.537.128,2.472A24.335,24.335,0,0,1,127.493-410.213Zm27.616,74.238a45.394,45.394,0,0,1,17.558,7.33c4.688,3.239,12.444,10.313,11.336,10.313-.17,0-38.057,13.3-39.591,13.893-.384.128-.469-.384-.384-1.747a14.565,14.565,0,0,0-.767-4.944c-.767-2.6-1.278-3.409-3.537-5.711-4.3-4.347-4.944-4.475-20.2-4.475-8.14,0-12.529-.128-12.231-.426,1.065-1.065,20.328-11.208,23.354-12.316A46,46,0,0,1,155.108-335.975Z" transform="translate(-0.019 -28.477)" fill="url(#linear-gradient)"/>
    <path id="Trazado_132" data-name="Trazado 132" d="M31.458-124.071l-1.108.895-.128,14.064-.128,14.106-1.023.81c-.938.767-1.833.81-14.106.81H1.8L.944-92.279a2.924,2.924,0,0,0-.085,4.049l.81,1.023,13.083.128c15.513.128,16.578-.043,19.305-3.111l1.7-1.918h3.281c3.2,0,3.324.043,5.668,1.875a34.731,34.731,0,0,0,15.342,6.9c2.472.469,7.8.6,25.485.6h22.374l1.023-1.065A3.51,3.51,0,0,0,110-85.929a3.51,3.51,0,0,0-1.065-2.131l-1.023-1.065H85.624c-25.1,0-25.868-.085-31.749-2.983a40.239,40.239,0,0,1-6.35-4.049L44.669-98.5H36.742l-.128-12.188-.128-12.188L35.293-123.9C33.844-125.137,32.907-125.179,31.458-124.071Z" transform="translate(0 -206.969)" fill="url(#linear-gradient)"/>
  </g>
</svg>
